<svg xmlns="http://www.w3.org/2000/svg" viewBox="-171.6 222.4 73.3 69.2">
  <path fill="#fff" d="M-145.2 241.3c-1.2-1.8-1.8-4-1.8-6.3 0-6.6 5.4-12 12-12s12 5.4 12 12c0 2.3-.6 4.5-1.8 6.3 8.2 3.8 13.8 12.1 13.8 21.7 0 1.4-.1 2.7-.3 4h.3c6.6 0 12 5.4 12 12s-5.4 12-12 12c-5.1 0-9.5-3.2-11.2-7.7-3.7 2.3-8.1 3.7-12.8 3.7-4.7 0-9.1-1.4-12.8-3.7-1.7 4.5-6.1 7.7-11.2 7.7-6.6 0-12-5.4-12-12s5.4-12 12-12h.3c-.2-1.3-.3-2.7-.3-4 0-9.6 5.6-17.9 13.8-21.7z"/>
  <path fill="#83C686" d="M-119.7 281.5c1.1 3.8 4.6 6.5 8.7 6.5 5 0 9-4 9-9s-4-9-9-9c-.4 0-.7 0-1.1.1-1.3 4.5-4 8.4-7.6 11.4zM-158 270h-1c-5 0-9 4-9 9s4 9 9 9c4.1 0 7.6-2.8 8.7-6.5-3.6-3-6.3-6.9-7.7-11.5z"/>
  <circle fill="#83C686" cx="-135" cy="263" r="21"/>
  <path fill="#83C686" d="M-122 283.2zm-26 0zm-.1-.1zm26.2 0zm-26.4-.1zm26.6 0zm.2-.1h-.1.1zm-27 0h.1-.1zm-.1-.1zm27.2 0zm-27.4-.1v-.1zm27.6-.1zm.2-.1l-.1.1v-.1zm-27.9 0v.1l-.1-.1zm28-.1zm-28.2 0zm-.2-.1zm28.6 0zm.1-.1zm-28.8 0zm-.2-.1h.1-.1zm29.2 0h-.1.1zm-29.3-.1l-.1-.1zm29.5-.1l-.1.1zm-29.7-.1zm29.8 0zm-29.9-.1zm30 0zm.2-.1zm-30.4 0zm-7.8-11.7zm46 0zm-46.1-.2zm46.2 0zm-46.2-.2zm46.2 0zm-46.3-.2zm46.4 0zm0-.2zm-46.4 0zm-.1-.2v.1-.1zm46.6 0v.1-.1zm-46.6-.2v.1-.1zm46.6 0v.1-.1zm-46.7-.1v-.1zm46.8-.1zm-46.8-.1v-.1zm46.8-.1v.1zm-46.8-.1zm46.8 0zm-46.9-.2zm47 0zm-47-.2zm47 0zm-47.1-.2zm47.2 0zm0-.2zm-47.2 0zm47.2-.2zm-47.2 0zm33.6-26h.1zm-20.1 0h.1zm.2-.1zm19.8 0zm-19.6-.1v.1-.1zm19.4 0v.1-.1zm-19.2 0h-.1.1zm19 0h.1-.1zm-.2-.1h.1zm-18.7 0h.1zm18.5-.1h.1zm-18.3 0h.1zm18.2-.1v.1-.1zm-18 0v.1-.1zm.2 0h-.1.1zm17.6 0h.1-.1zm-.2-.1h.1-.1zm-17.2 0h-.1.1zm17-.1h.1zm-16.9 0h.1zm16.8 0zm-16.6 0zm.2-.1zm16.2 0zm-.2-.1zm-15.8 0zm15.6 0h.1-.1zm-15.4 0h-.1.1zm15.3-.1zm-15.2 0zM-127.6 240.2c1-1.5 1.6-3.2 1.6-5.2 0-5-4-9-9-9s-9 4-9 9c0 1.9.6 3.7 1.6 5.2 2.3-.8 4.8-1.2 7.4-1.2s5.1.4 7.4 1.2z"/>
</svg>
