<svg width="21" height="14" xmlns="http://www.w3.org/2000/svg">
  <path d="M18.6936518 4.6667172c-1.0744253.0018039-2.0053851.7543332-2.2450726 1.8147755h-3.9544825c-.5286594.0023169-1.0036073-.3267367-1.1929509-.8265006l-.903611-2.3524676c-.34115-.8996192-1.1962824-1.4918333-2.1480285-1.4875975H4.5513329C4.2906614.6569396 3.2124741-.118015 2.0468082.0147827.8811423.1475803 0 1.1457501 0 2.3334343c0 1.1876842.8811423 2.185854 2.0468082 2.3186517 1.1656659.1327976 2.2438532-.642157 2.5045247-1.8001444h3.6981734c.5287303-.0023503 1.0037698.326696 1.1932069.8265006l.903611 2.3524677c.1468708.3800167.3898881.7142296.7046579.9690901-.3147873.2548435-.5578084.5890616-.7046579.9690901l-.903867 2.3527269c-.1894268.4996619-.6643559.8285993-1.1929509.8262414H4.5513329C4.2906614 9.990071 3.2124741 9.2151164 2.0468082 9.347914.8811423 9.4807117 0 10.4788815 0 11.6665657c0 1.1876842.8811423 2.185854 2.0468082 2.3186516 1.1656659.1327977 2.2438532-.6421569 2.5045247-1.8001443h3.6981734c.9517687.0043103 1.8069389-.58793 2.1480285-1.4875975l.9038671-2.3527268c.1893936-.499573.6641933-.8284913 1.1926948-.8262414h3.9544825c.2680536 1.1907799 1.3976855 1.9707883 2.5904429 1.7886953 1.1927575-.1820931 2.0450147-1.2646677 1.9543745-2.4825326-.0906401-1.2178648-1.0935053-2.1588978-2.2997448-2.1579528zM2.3062602 3.6297026c-.7070708 0-1.280265-.5803591-1.280265-1.2962683 0-.7159092.5731942-1.2962682 1.280265-1.2962682s1.280265.580359 1.280265 1.2962682c-.0008466.7155539-.5735451 1.2954111-1.280265 1.2962683zm0 9.3331313c-.7070708 0-1.280265-.580359-1.280265-1.2962682 0-.7159092.5731942-1.2962683 1.280265-1.2962683s1.280265.5803591 1.280265 1.2962683c-.0008466.7155538-.5735451 1.2954111-1.280265 1.2962682zm16.3873916-4.6665657c-.7070708 0-1.2802649-.580359-1.2802649-1.2962682 0-.7159092.5731941-1.2962682 1.2802649-1.2962682.7070709 0 1.280265.580359 1.280265 1.2962682-.0008465.7155539-.5735451 1.2954111-1.280265 1.2962682z" fill="#FFF" fill-rule="nonzero"/>
</svg>
