<svg width="15" height="17" xmlns="http://www.w3.org/2000/svg">
  <path d="M14.4444444 2.63793103H10V.5862069C10 .29310345 9.72222222 0 9.44444444 0H5.83333333c-.27777777 0-.55555555.29310345-.55555555.5862069v2.05172413H.55555556C.27777778 2.63793103 0 2.93103448 0 3.22413793s.27777778.5862069.55555556.5862069h1.66666666V16.4137931C2.22222222 16.7068966 2.5 17 2.77777778 17H12.7777778c.2777778 0 .5555555-.2931034.5555555-.5862069V3.81034483h1.1111111c.2777778 0 .5555556-.29310345.5555556-.5862069s-.2777778-.5862069-.5555556-.5862069zM6.38888889 1.17241379h2.5v1.1724138h-2.5v-1.1724138zM12.2222222 15.8275862H3.33333333V3.81034483h8.88888887V15.8275862zM10 6.74137931v5.56896549c0 .3036377-.25.5862069-.55555556.5862069-.30555555 0-.55555555-.2825692-.55555555-.5862069V6.74137931c0-.30363766.25-.5862069.55555555-.5862069C9.75 6.15517241 10 6.40634507 10 6.74137931zm-3.61111111 0v5.56896549c0 .3036377-.25.5862069-.55555556.5862069-.30555555 0-.55555555-.2825692-.55555555-.5862069V6.74137931c0-.30363766.25-.5862069.55555555-.5862069.30555556 0 .55555556.25117266.55555556.5862069z" fill="#E84F4F" fill-rule="evenodd"/>
</svg>
