<?xml version="1.0" encoding="utf-8"?>
<!-- Generator: Adobe Illustrator 20.1.0, SVG Export Plug-In . SVG Version: 6.00 Build 0)  -->
<svg version="1.1" id="Capa_1" xmlns="http://www.w3.org/2000/svg" xmlns:xlink="http://www.w3.org/1999/xlink" x="0px" y="0px"
	 viewBox="0 0 71 71" style="enable-background:new 0 0 71 71;" xml:space="preserve">
<style type="text/css">
	.st0{fill:#2D2D2D;}
</style>
<path class="st0" d="M10.4,34C11.2,21.4,21.4,11.2,34,10.4V0.9C34,0.4,34.4,0,34.9,0h1.2C36.6,0,37,0.4,37,0.9v9.6
	C49.6,11.2,59.8,21.4,60.6,34h9.6c0.5,0,0.9,0.4,0.9,0.9v1.2c0,0.5-0.4,0.9-0.9,0.9h-9.6C59.8,49.6,49.6,59.8,37,60.6v9.6
	c0,0.5-0.4,0.9-0.9,0.9h-1.2c-0.5,0-0.9-0.4-0.9-0.9v-9.6C21.4,59.8,11.2,49.6,10.4,37H0.9C0.4,37,0,36.6,0,36.1v-1.2
	C0,34.4,0.4,34,0.9,34H10.4z M13.3,35.5c0,12.3,10,22.2,22.2,22.2s22.2-10,22.2-22.2s-10-22.2-22.2-22.2S13.3,23.2,13.3,35.5z
	 M21.4,35.5c0-7.8,6.3-14.1,14.1-14.1s14.1,6.3,14.1,14.1s-6.3,14.1-14.1,14.1S21.4,43.3,21.4,35.5z"/>
</svg>
