<?xml version="1.0" encoding="UTF-8"?>
<svg width="84px" height="76px" viewBox="0 0 84 76" version="1.1" xmlns="http://www.w3.org/2000/svg" xmlns:xlink="http://www.w3.org/1999/xlink">
    <!-- Generator: Sketch 39.1 (31720) - http://www.bohemiancoding.com/sketch -->
    <title>Page 1</title>
    <desc>Created with Sketch.</desc>
    <defs></defs>
    <g id="--Symbols-/-UI-/-Icons" stroke="none" stroke-width="1" fill="none" fill-rule="evenodd">
        <g id="Icon-/-Favorite-/-Grey" transform="translate(-19.000000, -23.000000)" fill="#646464">
            <path d="M49.4799819,30.4577212 C51.9164796,32.3723076 54.1095717,35.338101 56.5819762,40.0900076 L60.3651713,47.3871832 L61.0000038,48.6116729 L61.6348303,47.3871801 L65.4178949,40.09017 C67.9284745,35.2588695 70.2314096,32.145066 72.6488011,30.282362 L72.8523178,30.1031158 L72.3456639,29.5985046 L72.7742221,30.170928 C75.257832,28.3115149 78.2785093,27.4412975 82.3145695,27.4412975 C86.7152064,27.4412975 90.8318546,29.0754689 93.9123148,32.0421587 C96.91767,34.9339638 98.5696944,38.779751 98.5696944,42.8790984 C98.5696944,47.0010051 97.5003473,51.1647768 95.2907445,55.6186902 C93.3988213,59.4322532 90.6323031,63.6002784 86.3157293,69.1339921 C83.1700546,73.1697472 79.5423753,76.8085776 74.0403882,81.6778596 C72.9559663,82.6375776 72.0774765,83.4041684 70.0706426,85.1472887 C65.3609607,89.2380151 63.2135647,91.1460107 60.5112869,93.7051913 L61.4962319,93.7066591 C58.7488202,91.0891583 56.5595439,89.1414338 51.7504653,84.9657768 C49.7602333,83.2377289 48.8889052,82.4776549 47.81353,81.5262053 C42.3770063,76.7161833 38.7910616,73.1198083 35.6841633,69.1337937 C31.3675231,63.6000553 28.6010361,59.4321009 26.70926,55.6186992 C24.4996681,51.1646739 23.4303056,47.0009056 23.4303056,42.8790984 C23.4303056,38.7796649 25.082393,34.9339053 28.087929,32.0419724 C31.1681971,29.0754212 35.2848644,27.4412975 39.6854305,27.4412975 C43.7645778,27.4412975 46.861313,28.4000714 49.4799819,30.4577212 Z M60.9950061,98.9942589 L61.4926775,98.5151489 L62.4356096,97.6073846 C65.3417835,94.8092653 67.6692318,92.7322011 72.7848513,88.2887791 C74.6767495,86.6455125 75.5072927,85.9212024 76.5353644,85.0135798 C82.3872187,79.8473302 86.2011978,76.0307045 89.5814469,71.693983 C94.0695027,65.9405057 96.9765449,61.5531986 99.002303,57.4698279 C101.497574,52.4399801 102.715074,47.6637265 102.715074,42.8790984 C102.715074,40.2273468 102.176173,37.6543157 101.113925,35.2347912 C100.093107,32.9097389 98.6353816,30.8260482 96.7833026,29.0439098 C92.9270696,25.3300831 87.7865564,23.2849261 82.3145695,23.2849261 C77.390781,23.2849261 73.4183471,24.4682319 70.2024251,26.9095897 L69.9804697,27.1045322 C67.1068478,29.3355951 64.5434612,32.7776467 61.7407413,38.1714115 L60.3651738,40.8246101 L61.6348263,40.8246103 L60.258679,38.1702908 C54.7940546,27.6671005 49.3514982,23.2849261 39.6854305,23.2849261 C34.2135004,23.2849261 29.0730868,25.3299984 25.2169507,29.0437145 C23.3646842,30.8260509 21.9068923,32.9097406 20.8860796,35.2347801 C19.823827,37.6543157 19.2849261,40.2273468 19.2849261,42.8790984 C19.2849261,47.6637265 20.5024261,52.4399801 22.9976953,57.4698245 C25.0234306,61.5531493 27.9304431,65.940436 32.41838,71.6937873 C36.4246864,76.8336769 40.0835251,80.3340854 49.036727,88.1077806 C54.2440974,92.629143 56.6149434,94.7481104 59.5592794,97.6023888 L60.4990105,98.5134143 L60.9950061,98.9942589 Z" id="Page-1"></path>
        </g>
    </g>
</svg>
