<svg width="3" height="19" xmlns="http://www.w3.org/2000/svg">
  <path d="M1.46951315 18.60489592c.7451302-.02602052 1.32808381-.65116173 1.3020633-1.39629194-.02602053-.74513021-.65116173-1.32808382-1.39629194-1.3020633-.74513021.02602052-1.32808382.65116173-1.3020633 1.39629194.02602052.74513021.65116173 1.32808382 1.39629194 1.3020633zm.02760117-7.8057183c.74513021-.02602052 1.32808382-.65116173 1.3020633-1.39629194-.02602052-.74513021-.65116173-1.32808382-1.39629194-1.3020633-.74513021.02602052-1.32808382.65116173-1.3020633 1.39629194.02602052.74513021.65116173 1.32808382 1.39629194 1.3020633zm.02760117-7.8057183c.74513021-.02602052 1.32808382-.65116173 1.3020633-1.39629194C2.80075827.85203716 2.17561706.26908356 1.43048685.29510408.68535665.3211246.10240304.9462658.12842355 1.69139602c.02602053.74513021.65116173 1.32808382 1.39629194 1.3020633z" fill="#2E2E2E" fill-rule="evenodd"/>
</svg>