<?xml version="1.0" encoding="UTF-8"?>
<svg width="60px" height="60px" viewBox="0 0 60 60" version="1.1" xmlns="http://www.w3.org/2000/svg" xmlns:xlink="http://www.w3.org/1999/xlink">
    <!-- Generator: Sketch 39.1 (31720) - http://www.bohemiancoding.com/sketch -->
    <title>Page 1</title>
    <desc>Created with Sketch.</desc>
    <defs></defs>
    <g id="--Symbols-/-UI-/-Icons" stroke="none" stroke-width="1" fill="none" fill-rule="evenodd">
        <g id="Icon-/-Plus-/-Grey" transform="translate(-30.000000, -30.000000)" fill="#646464">
            <path d="M63,57 L63,32.38908 C63,31.06692 61.92288,30 60.59412,30 L59.40588,30 C58.07268,30 57,31.06968 57,32.38908 L57,57 L32.38908,57 C31.06692,57 30,58.07712 30,59.40588 L30,60.59412 C30,61.92732 31.06968,63 32.38908,63 L57,63 L57,87.61092 C57,88.93308 58.07712,90 59.40588,90 L60.59412,90 C61.92732,90 63,88.93032 63,87.61092 L63,63 L87.61092,63 C88.93308,63 90,61.92288 90,60.59412 L90,59.40588 C90,58.07268 88.93032,57 87.61092,57 L63,57 Z" id="Page-1"></path>
        </g>
    </g>
</svg>