<?xml version="1.0" encoding="utf-8"?>
<!-- Generator: Adobe Illustrator 19.0.0, SVG Export Plug-In . SVG Version: 6.00 Build 0)  -->
<svg width="16px" height="16px"  version="1.1" id="Capa_1" xmlns="http://www.w3.org/2000/svg" xmlns:xlink="http://www.w3.org/1999/xlink" x="0px" y="0px"
	 viewBox="-221.1 230.1 12.3 13.4" style="enable-background:new -221.1 230.1 12.3 13.4;" xml:space="preserve">
<style type="text/css">
	.st0{fill:#2D2D2D;}
</style>
<title>Share Icon</title>
<desc>Created with Sketch.</desc>
<g id="Icon-_x2F_-Share-_x2F_-Share-Outlined-Bold">
	<path id="Icon-_x2F_-Share" class="st0" d="M-210.6,235.9C-210.6,235.9-210.6,235.8-210.6,235.9l-2.8-3.5l-0.1,2.2h-0.8
		c-1.7,0-3,0.4-3.9,1.1c-0.7,0.5-1.2,1.7-1.2,1.7c0,0.3,0,2.3,0,2.3c0.6-0.9,1.1-1.5,1.6-1.8c0.9-0.6,1.5-0.7,3.4-0.7h0.8
		c0,0,0,1.1,0,1.9L-210.6,235.9z M-214.3,240.3l0-2.3c-2.8,0-3.1,0-5.9,4.5c0,0,0-4.4,0-5.1c0.1-1.3,1.9-3.6,5.9-3.6l0.1-2.3
		c0-0.4,0.3-0.5,0.6-0.2l3.6,3.9c0.3,0.3,0.3,0.8,0,1.2l-3.7,4.1C-214,240.8-214.3,240.7-214.3,240.3z"/>
</g>
</svg>
