<?xml version="1.0" encoding="UTF-8"?>
<svg width="54px" height="76px" viewBox="0 0 54 76" version="1.1" xmlns="http://www.w3.org/2000/svg" xmlns:xlink="http://www.w3.org/1999/xlink">
    <!-- Generator: Sketch 39.1 (31720) - http://www.bohemiancoding.com/sketch -->
    <title>Combined Shape</title>
    <desc>Created with Sketch.</desc>
    <defs></defs>
    <g id="--Symbols-/-UI-/-Icons" stroke="none" stroke-width="1" fill="none" fill-rule="evenodd">
        <g id="Icon-/-Share-/-Grey" transform="translate(-34.000000, -22.000000)" fill="#646464">
            <path d="M68.1142857,43.8369815 L68.1142857,46.674092 L85.1714286,46.674092 L85.1714286,95.1628895 L36.8285714,95.1628895 L36.8285714,46.674092 L53.8857143,46.674092 L53.8857143,43.8369815 L34,43.8369815 L34,98 L88,98 L88,43.8369815 L68.1142857,43.8369815 Z M60.9145429,22 L48.0574,34.895097 L50.0288286,36.8733368 L59.4574,27.4163018 L59.4574,39.9683664 L59.4574,51.0580295 L59.5431143,51.0580295 L59.5431143,70.9186627 L62.3716857,70.9186627 L62.3716857,51.0580295 L62.3716857,39.9683664 L62.3716857,27.4163018 L71.8002571,36.8733368 L73.7716857,34.895097 L60.9145429,22 Z" id="Combined-Shape"></path>
        </g>
    </g>
</svg>