<?xml version="1.0" encoding="UTF-8"?>
<svg width="22px" height="15px" viewBox="0 0 22 15" version="1.1" xmlns="http://www.w3.org/2000/svg" xmlns:xlink="http://www.w3.org/1999/xlink">
    <!-- Generator: Sketch 45.1 (43504) - http://www.bohemiancoding.com/sketch -->
    <title>Shape</title>
    <desc>Created with Sketch.</desc>
    <defs></defs>
    <g id="--Design-" stroke="none" stroke-width="1" fill="none" fill-rule="evenodd" opacity="1">
        <g id="Design-/-Node-Window-Mobile-View-Scroll-lock" transform="translate(-259.000000, -82.000000)" fill-rule="nonzero" fill="#2d2d2d">
            <g id="Group-10" transform="translate(13.000000, 4.000000)">
                <g id="Group-5" transform="translate(9.000000, 0.000000)">
                    <g id="Icon-/-Settings-/-Black-55px-Thin-Copy" transform="translate(223.000000, 61.000000)">
                        <path d="M27.6855017,31.0535088 L27.6855017,31.6909871 C27.6855017,31.7730156 27.6591354,31.8403961 27.6064028,31.8931287 C27.5536702,31.9458613 27.4862897,31.9722276 27.4042613,31.9722276 C27.4042613,31.9722276 22.8718826,31.9722276 22.2889413,31.9722276 L21.9020829,31.9722276 C21.8200544,31.9722276 21.7526739,31.9458613 21.6999413,31.8931287 C21.6472087,31.8403961 21.6208424,31.7730156 21.6208424,31.6909871 L21.6208424,31.0535088 C21.6208424,30.9714804 21.6472087,30.9040998 21.6999413,30.8513672 C21.7526739,30.7986347 21.8200544,30.7722684 21.9020829,30.7722684 L27.4042613,30.7722684 C27.4862897,30.7722684 27.5536702,30.7986347 27.6064028,30.8513672 C27.6591354,30.9040998 27.6855017,30.9714804 27.6855017,31.0535088 Z M19.6896581,28.8785827 C19.6896581,28.9488929 19.6603622,29.019203 19.6017704,29.0895131 L17.323137,31.8931287 C17.2645452,31.9458613 17.1971647,31.9722276 17.1209954,31.9722276 C17.0506853,31.9722276 16.9833048,31.9458613 16.9188538,31.8931287 L14.6314316,29.0807243 C14.5435439,28.9869775 14.5230368,28.8844419 14.5699102,28.7731176 C14.6167836,28.6559341 14.7046713,28.5973423 14.8335731,28.5973423 L16.5210158,28.5973423 L16.5210158,17.5539677 C16.5210158,17.4719393 16.5473821,17.4045587 16.6001147,17.3518261 C16.6528472,17.2990936 16.7202278,17.2727273 16.8022562,17.2727273 L17.4397346,17.2727273 C17.521763,17.2727273 17.5891435,17.2990936 17.6418761,17.3518261 C17.6946087,17.4045587 17.720975,17.4719393 17.720975,17.5539677 L17.720975,28.5973423 L19.4084176,28.5973423 C19.4904461,28.5973423 19.5578266,28.6237086 19.6105592,28.6764412 C19.6632918,28.7291738 19.6896581,28.7965543 19.6896581,28.8785827 Z M30.2820352,26.5536618 L30.2820352,27.1911401 C30.2820352,27.2731686 30.255669,27.3405491 30.2029364,27.3932817 C30.1502038,27.4460143 30.0828233,27.4723806 30.0007948,27.4723806 L21.9020829,27.4723806 C21.8200544,27.4723806 21.7526739,27.4460143 21.6999413,27.3932817 C21.6472087,27.3405491 21.6208424,27.2731686 21.6208424,27.1911401 L21.6208424,26.5536618 C21.6208424,26.4716333 21.6472087,26.4042528 21.6999413,26.3515202 C21.7526739,26.2987876 21.8200544,26.2724213 21.9020829,26.2724213 L30.0007948,26.2724213 C30.0828233,26.2724213 30.1502038,26.2987876 30.2029364,26.3515202 C30.255669,26.4042528 30.2820352,26.4716333 30.2820352,26.5536618 Z M32.8785688,22.0538147 L32.8785688,22.6912931 C32.8785688,22.7733215 32.8522025,22.8407021 32.7994699,22.8934346 C32.7467373,22.9461672 32.6793568,22.9725335 32.5973284,22.9725335 L21.9020829,22.9725335 C21.8200544,22.9725335 21.7526739,22.9461672 21.6999413,22.8934346 C21.6472087,22.8407021 21.6208424,22.7733215 21.6208424,22.6912931 L21.6208424,22.0538147 C21.6208424,21.9717863 21.6472087,21.9044058 21.6999413,21.8516732 C21.7526739,21.7989406 21.8200544,21.7725743 21.9020829,21.7725743 L32.5973284,21.7725743 C32.6793568,21.7725743 32.7467373,21.7989406 32.7994699,21.8516732 C32.8522025,21.9044058 32.8785688,21.9717863 32.8785688,22.0538147 Z M35.4751023,17.5539677 L35.4751023,18.191446 C35.4751023,18.2734745 35.4487361,18.340855 35.3960035,18.3935876 C35.3432709,18.4463202 35.2758904,18.4726865 35.1938619,18.4726865 L21.9020829,18.4726865 C21.8200544,18.4726865 21.7526739,18.4463202 21.6999413,18.3935876 C21.6472087,18.340855 21.6208424,18.2734745 21.6208424,18.191446 L21.6208424,17.5539677 C21.6208424,17.4719393 21.6472087,17.4045587 21.6999413,17.3518261 C21.7526739,17.2990936 21.8200544,17.2727273 21.9020829,17.2727273 L35.1938619,17.2727273 C35.2758904,17.2727273 35.3432709,17.2990936 35.3960035,17.3518261 C35.4487361,17.4045587 35.4751023,17.4719393 35.4751023,17.5539677 Z" id="Shape"></path>
                    </g>
                </g>
            </g>
        </g>
    </g>
</svg>