<?xml version="1.0" encoding="UTF-8"?>
<svg width="60px" height="60px" viewBox="0 0 60 60" version="1.1" xmlns="http://www.w3.org/2000/svg" xmlns:xlink="http://www.w3.org/1999/xlink">
    <!-- Generator: Sketch 42 (36781) - http://www.bohemiancoding.com/sketch -->
    <title>Orbit Toggle - Original group</title>
    <desc>Created with Sketch.</desc>
    <defs></defs>
    <g id="--Symbols-/-Icons" stroke="none" stroke-width="1" fill="none" fill-rule="evenodd">
        <g id="Icon-/-Toggle-orbit-/-Toggle-Bold" transform="translate(-30.000000, -30.000000)">
            <g id="Orbit-Toggle---Original-group" transform="translate(30.000000, 30.000000)">
                <path d="M30,60 C13.4314575,60 0,46.5685425 0,30 C0,13.4314575 13.4314575,0 30,0 C46.5685425,0 60,13.4314575 60,30 C60,46.5685425 46.5685425,60 30,60 Z M30,56.25 C44.4974747,56.25 56.25,44.4974747 56.25,30 C56.25,15.5025253 44.4974747,3.75 30,3.75 C15.5025253,3.75 3.75,15.5025253 3.75,30 C3.75,44.4974747 15.5025253,56.25 30,56.25 Z" id="Combined-Shape" fill="#2E2E2E"></path>
                <circle id="Combined-Shape" fill="#FFFFFF" cx="51.5" cy="12.5" r="7.5"></circle>
                <path d="M51.5,20 C47.3578644,20 44,16.6421356 44,12.5 C44,8.35786438 47.3578644,5 51.5,5 C55.6421356,5 59,8.35786438 59,12.5 C59,16.6421356 55.6421356,20 51.5,20 Z M51.5,17 C53.9852814,17 56,14.9852814 56,12.5 C56,10.0147186 53.9852814,8 51.5,8 C49.0147186,8 47,10.0147186 47,12.5 C47,14.9852814 49.0147186,17 51.5,17 Z" id="Combined-Shape" fill="#2E2E2E"></path>
                <path d="M30,40 C24.4771525,40 20,35.5228475 20,30 C20,24.4771525 24.4771525,20 30,20 C35.5228475,20 40,24.4771525 40,30 C40,35.5228475 35.5228475,40 30,40 Z M30,36 C33.3137085,36 36,33.3137085 36,30 C36,26.6862915 33.3137085,24 30,24 C26.6862915,24 24,26.6862915 24,30 C24,33.3137085 26.6862915,36 30,36 Z" id="Combined-Shape" fill="#2E2E2E"></path>
            </g>
        </g>
    </g>
</svg>
