<?xml version="1.0" encoding="UTF-8"?>
<svg width="22px" height="50px" viewBox="0 0 22 50" version="1.1" xmlns="http://www.w3.org/2000/svg" xmlns:xlink="http://www.w3.org/1999/xlink">
    <g id="--Design-" stroke="none" stroke-width="1" fill="none" fill-rule="evenodd" opacity="0.300000012">
        <g id="Design-/-Node-Window-/-Expertise" transform="translate(-129.000000, -445.000000)" fill="#2D2D2D">
            <g id="Group-10" transform="translate(83.000000, 349.000000)">
                <g id="Group-5" transform="translate(45.000000, 2.000000)">
                    <g id="Article" transform="translate(0.000000, 91.000000)">
                        <g id="Group-14">
                            <g id="Group-17" transform="translate(0.000000, 3.000000)">
                                <g id="upvote" transform="translate(1.000000, 33.875789)">
                                    <path onClick="alert('click!')" d="M4.6566241,18.361401 C4.21622639,18.6876215 3.85921351,18.5131621 3.85921351,17.9508568 L3.85921351,-2.01942866 C3.85921351,-2.57238651 4.22583907,-2.74907292 4.6566241,-2.4299729 L17.8933909,7.37503955 C18.3337886,7.70126007 18.3241759,8.23728855 17.8933909,8.55638857 L4.6566241,18.361401 Z" id="Icon-/-Arrow" transform="translate(10.834087, 7.966615) rotate(-270.000000) translate(-10.834087, -7.966615) "></path>
                                </g>
                                <g id="downvote" transform="translate(11.969031, 8.344820) rotate(-180.000000) translate(-11.969031, -8.344820) translate(0.969031, 0.844820)">
                                    <path d="M4.6566241,18.361401 C4.21622639,18.6876215 3.85921351,18.5131621 3.85921351,17.9508568 L3.85921351,-2.01942866 C3.85921351,-2.57238651 4.22583907,-2.74907292 4.6566241,-2.4299729 L17.8933909,7.37503955 C18.3337886,7.70126007 18.3241759,8.23728855 17.8933909,8.55638857 L4.6566241,18.361401 Z" id="Icon-/-Arrow" transform="translate(10.834087, 7.966615) rotate(-270.000000) translate(-10.834087, -7.966615) "></path>
                                </g>
                            </g>
                        </g>
                    </g>
                </g>
            </g>
        </g>
    </g>
</svg>