<svg xmlns="http://www.w3.org/2000/svg" width="120px" height="90px"  viewBox="0 10 120 90">
  <path strokeWidth="3" stroke="black" d="M34.5 27.7c12.6 0 22.8 10.2 22.8 22.8S47.1 73.3 34.5 73.3 11.7 63.1 11.7 50.5s10.2-22.8 22.8-22.8m0-1.7C21 26 10 37 10 50.5S21 75 34.5 75 59 64 59 50.5 48 26 34.5 26z"/>
  <path strokeWidth="3" stroke="black" d="M65.5 27.7c12.6 0 22.8 10.2 22.8 22.8S78.1 73.3 65.5 73.3 42.7 63.1 42.7 50.5s10.2-22.8 22.8-22.8m0-1.7C52 26 41 37 41 50.5S52 75 65.5 75 90 64 90 50.5 79 26 65.5 26z"/>
</svg>