<?xml version="1.0" encoding="UTF-8"?>
<svg width="22px" height="22px" viewBox="0 0 22 22" version="1.1" xmlns="http://www.w3.org/2000/svg" xmlns:xlink="http://www.w3.org/1999/xlink">
    <!-- Generator: Sketch 52.4 (67378) - http://www.bohemiancoding.com/sketch -->
    <title>Icon / Wikipedia</title>
    <desc>Created with Sketch.</desc>
    <g id="Symbols" stroke="none" stroke-width="1" fill="none" fill-rule="evenodd">
        <g id="NPW/NPW-Astronomy-SEE-MORE" transform="translate(-151.000000, -217.000000)">
            <g id="Icon-/-Wikipedia" transform="translate(152.000000, 218.000000)">
                <path d="M16.732,6.894 C16.732,6.94200024 16.7170002,6.9859998 16.687,7.026 C16.6569998,7.0660002 16.6240002,7.086 16.588,7.086 C16.2919985,7.11400014 16.0500009,7.20899919 15.862,7.371 C15.6739991,7.53300081 15.480001,7.84199772 15.28,8.298 L12.22,15.192 C12.1999999,15.2560003 12.1440005,15.288 12.052,15.288 C11.9799996,15.288 11.9240002,15.2560003 11.884,15.192 L10.168,11.604 L8.194,15.192 C8.1539998,15.2560003 8.09800036,15.288 8.026,15.288 C7.93799956,15.288 7.88000014,15.2560003 7.852,15.192 L4.846,8.298 C4.65799906,7.86999786 4.46000104,7.57100085 4.252,7.401 C4.04399896,7.23099915 3.75400186,7.1260002 3.382,7.086 C3.34999984,7.086 3.32000014,7.06900017 3.292,7.035 C3.26399986,7.00099983 3.25,6.96200022 3.25,6.918 C3.25,6.80599944 3.28199968,6.75 3.346,6.75 C3.61400134,6.75 3.89399854,6.76199988 4.186,6.786 C4.45800136,6.81000012 4.7139988,6.822 4.954,6.822 C5.19800122,6.822 5.48599834,6.81000012 5.818,6.786 C6.16600174,6.76199988 6.47399866,6.75 6.742,6.75 C6.80600032,6.75 6.838,6.80599944 6.838,6.918 C6.838,7.03000056 6.8180002,7.086 6.778,7.086 C6.50999866,7.1060001 6.29900077,7.17399942 6.145,7.29 C5.99099923,7.40600058 5.914,7.55799906 5.914,7.746 C5.914,7.84200048 5.94599968,7.96199928 6.01,8.106 L8.494,13.716 L9.904,11.052 L8.59,8.298 C8.35399882,7.80599754 8.16000076,7.48900071 8.008,7.347 C7.85599924,7.20499929 7.62600154,7.11800016 7.318,7.086 C7.28999986,7.086 7.26300013,7.06900017 7.237,7.035 C7.21099987,7.00099983 7.198,6.96200022 7.198,6.918 C7.198,6.80599944 7.22599972,6.75 7.282,6.75 C7.55000134,6.75 7.79599888,6.76199988 8.02,6.786 C8.23600108,6.81000012 8.46599878,6.822 8.71,6.822 C8.9500012,6.822 9.20399866,6.81000012 9.472,6.786 C9.74800138,6.76199988 10.0199987,6.75 10.288,6.75 C10.3520003,6.75 10.384,6.80599944 10.384,6.918 C10.384,7.03000056 10.3640002,7.086 10.324,7.086 C9.78799732,7.12200018 9.52,7.27399866 9.52,7.542 C9.52,7.6620006 9.58199938,7.84799874 9.706,8.1 L10.576,9.864 L11.44,8.25 C11.5600006,8.02199886 11.62,7.83000078 11.62,7.674 C11.62,7.30599816 11.3520027,7.11000012 10.816,7.086 C10.7679998,7.086 10.744,7.03000056 10.744,6.918 C10.744,6.8779998 10.7559999,6.84000018 10.78,6.804 C10.8040001,6.76799982 10.8279999,6.75 10.852,6.75 C11.044001,6.75 11.2799986,6.76199988 11.56,6.786 C11.8280013,6.81000012 12.0479991,6.822 12.22,6.822 C12.3440006,6.822 12.5259988,6.8120001 12.766,6.792 C13.0700015,6.76399986 13.323999,6.75 13.528,6.75 C13.5760002,6.75 13.6,6.79799952 13.6,6.894 C13.6,7.02200064 13.5560004,7.086 13.468,7.086 C13.1559984,7.11800016 12.9050009,7.2039993 12.715,7.344 C12.524999,7.4840007 12.2880014,7.80199752 12.004,8.298 L10.852,10.428 L12.412,13.608 L14.716,8.25 C14.7960004,8.05399902 14.836,7.87400082 14.836,7.71 C14.836,7.31799804 14.5680027,7.11000012 14.032,7.086 C13.9839998,7.086 13.96,7.03000056 13.96,6.918 C13.96,6.80599944 13.9959996,6.75 14.068,6.75 C14.264001,6.75 14.4959987,6.76199988 14.764,6.786 C15.0120012,6.81000012 15.2199992,6.822 15.388,6.822 C15.5640009,6.822 15.7679988,6.81000012 16,6.786 C16.2400012,6.76199988 16.455999,6.75 16.648,6.75 C16.7040003,6.75 16.732,6.79799952 16.732,6.894 Z" id="W" fill="#2E2E2E" fill-rule="evenodd"></path>
                <circle id="Oval" stroke="#2E2E2E" stroke-width="1" cx="10" cy="10" r="10"></circle>
            </g>
        </g>
    </g>
</svg>