<?xml version="1.0" encoding="UTF-8"?>
<svg width="15px" height="16px" viewBox="0 0 15 16" version="1.1" xmlns="http://www.w3.org/2000/svg" xmlns:xlink="http://www.w3.org/1999/xlink">
    <!-- Generator: Sketch 51.3 (57544) - http://www.bohemiancoding.com/sketch -->
    <title>Shape</title>
    <desc>Created with Sketch.</desc>
    <defs></defs>
    <g id="Pyctos" stroke="none" stroke-width="1" fill="none" fill-rule="evenodd">
        <g id="Artboard" transform="translate(-1022.000000, -2268.000000)" fill="#000000">
            <g id="16px" transform="translate(115.000000, 84.000000)">
                <path d="M921.5,2190.998 L907.5,2190.998 C907.224,2190.998 907,2190.775 907,2190.498 C907,2190.223 907.224,2189.999 907.5,2189.999 L921.5,2189.999 C921.775,2189.999 922,2190.223 922,2190.498 C922,2190.775 921.775,2190.998 921.5,2190.998 L921.5,2190.998 Z M914.5,2186.998 C913.29,2186.998 912.281,2187.857 912.051,2188.998 L911.051,2188.998 C911.272,2187.469 912.473,2186.266 914,2186.045 L914,2184.499 C914,2184.223 914.224,2183.999 914.5,2183.999 C914.775,2183.999 915,2184.223 915,2184.499 L915,2186.045 C916.527,2186.266 917.729,2187.469 917.949,2188.998 L916.949,2188.998 C916.718,2187.857 915.709,2186.998 914.5,2186.998 L914.5,2186.998 Z M908,2197.498 L908,2192.499 C908,2192.223 908.224,2191.998 908.5,2191.998 C908.775,2191.998 909,2192.223 909,2192.499 L909,2197.498 C909,2197.775 908.775,2197.998 908.5,2197.998 C908.224,2197.998 908,2197.775 908,2197.498 L908,2197.498 Z M910,2197.498 L910,2192.499 C910,2192.223 910.224,2191.998 910.5,2191.998 C910.775,2191.998 911,2192.223 911,2192.499 L911,2197.498 C911,2197.775 910.775,2197.998 910.5,2197.998 C910.224,2197.998 910,2197.775 910,2197.498 L910,2197.498 Z M913,2197.498 L913,2192.499 C913,2192.223 913.224,2191.998 913.5,2191.998 C913.775,2191.998 914,2192.223 914,2192.499 L914,2197.498 C914,2197.775 913.775,2197.998 913.5,2197.998 C913.224,2197.998 913,2197.775 913,2197.498 L913,2197.498 Z M915,2197.498 L915,2192.499 C915,2192.223 915.224,2191.998 915.5,2191.998 C915.775,2191.998 916,2192.223 916,2192.499 L916,2197.498 C916,2197.775 915.775,2197.998 915.5,2197.998 C915.224,2197.998 915,2197.775 915,2197.498 L915,2197.498 Z M918,2197.498 L918,2192.499 C918,2192.223 918.224,2191.998 918.5,2191.998 C918.775,2191.998 919,2192.223 919,2192.499 L919,2197.498 C919,2197.775 918.775,2197.998 918.5,2197.998 C918.224,2197.998 918,2197.775 918,2197.498 L918,2197.498 Z M920,2197.498 L920,2192.499 C920,2192.223 920.224,2191.998 920.5,2191.998 C920.775,2191.998 921,2192.223 921,2192.499 L921,2197.498 C921,2197.775 920.775,2197.998 920.5,2197.998 C920.224,2197.998 920,2197.775 920,2197.498 L920,2197.498 Z M907.5,2198.998 L921.5,2198.998 C921.775,2198.998 922,2199.223 922,2199.499 C922,2199.775 921.775,2199.998 921.5,2199.998 L907.5,2199.998 C907.224,2199.998 907,2199.775 907,2199.499 C907,2199.223 907.224,2198.998 907.5,2198.998 L907.5,2198.998 Z" id="Shape"></path>
            </g>
        </g>
    </g>
</svg>