<?xml version="1.0" encoding="UTF-8"?>
<svg width="11px" height="16px" viewBox="0 0 11 16" version="1.1" xmlns="http://www.w3.org/2000/svg" xmlns:xlink="http://www.w3.org/1999/xlink">
    <!-- Generator: Sketch 51.3 (57544) - http://www.bohemiancoding.com/sketch -->
    <title>Shape</title>
    <desc>Created with Sketch.</desc>
    <defs></defs>
    <g id="Pyctos" stroke="none" stroke-width="1" fill="none" fill-rule="evenodd">
        <g id="Artboard" transform="translate(-1024.000000, -2384.000000)" fill="#000000">
            <g id="16px" transform="translate(115.000000, 84.000000)">
                <path d="M914.5,2315.998 C912.761,2315.998 909,2312.917 909,2308.498 C909,2304.08 912.761,2299.998 914.5,2299.998 C916.238,2299.998 920,2304.08 920,2308.498 C920,2312.917 916.238,2315.998 914.5,2315.998 L914.5,2315.998 Z M914.5,2300.998 C913.209,2300.998 910,2304.632 910,2308.498 C910,2311.933 912.529,2314.39 914,2314.896 L914,2311.189 L912.139,2309.323 C911.951,2309.135 911.953,2308.829 912.144,2308.638 C912.333,2308.448 912.639,2308.445 912.827,2308.633 L914.001,2309.81 L914.001,2305.498 C914.001,2305.222 914.225,2304.997 914.501,2304.997 C914.776,2304.997 915.001,2305.222 915.001,2305.498 L915.001,2307.114 L916.772,2306.064 C917.004,2305.925 917.302,2306.008 917.437,2306.247 C917.572,2306.487 917.492,2306.792 917.258,2306.931 L915,2308.27 L915,2311.014 L915,2311.015 L915,2311.616 L916.771,2310.566 C917.003,2310.426 917.301,2310.509 917.436,2310.748 C917.571,2310.988 917.491,2311.294 917.257,2311.432 L914.999,2312.772 L914.999,2314.897 C916.469,2314.39 918.999,2311.933 918.999,2308.499 C919,2304.632 915.79,2300.998 914.5,2300.998 L914.5,2300.998 Z" id="Shape"></path>
            </g>
        </g>
    </g>
</svg>