<?xml version="1.0" encoding="UTF-8"?>
<svg width="11px" height="16px" viewBox="0 0 11 16" version="1.1" xmlns="http://www.w3.org/2000/svg" xmlns:xlink="http://www.w3.org/1999/xlink">
    <!-- Generator: Sketch 51.3 (57544) - http://www.bohemiancoding.com/sketch -->
    <title>Shape</title>
    <desc>Created with Sketch.</desc>
    <defs></defs>
    <g id="Pyctos" stroke="none" stroke-width="1" fill="none" fill-rule="evenodd">
        <g id="Artboard" transform="translate(-515.000000, -2057.000000)" fill="#000000">
            <g id="16px" transform="translate(115.000000, 84.000000)">
                <path d="M410.334,1988.999 L400.936,1988.999 C399.83,1988.999 399.83,1988.999 400.294,1988.105 C401.274,1986.219 403.009,1982 403.009,1982 L408.009,1982 C408.009,1982 409.782,1986.076 410.785,1988.008 C411.3,1988.999 410.781,1988.999 410.334,1988.999 L410.334,1988.999 Z M403.675,1983 C403.563,1983.269 403.418,1983.613 403.254,1983.998 L407.797,1983.998 C407.624,1983.611 407.472,1983.268 407.354,1983 L403.675,1983 L403.675,1983 Z M408.248,1984.999 L402.825,1984.999 C402.387,1986.01 401.891,1987.126 401.466,1988 L409.659,1988 C409.224,1987.126 408.706,1986.009 408.248,1984.999 L408.248,1984.999 Z M408.5,1977.999 L408,1977.999 L408,1981.999 L403,1981.999 L403,1977.999 L402.5,1977.999 C402.224,1977.999 402,1977.775 402,1977.499 C402,1977.223 402.224,1976.999 402.5,1976.999 L408.5,1976.999 C408.776,1976.999 409,1977.223 409,1977.499 C409,1977.775 408.776,1977.999 408.5,1977.999 L408.5,1977.999 Z M407,1977.999 L404,1977.999 L404,1981.998 L407,1981.998 L407,1977.999 L407,1977.999 Z M408,1974.999 C407.447,1974.999 407,1974.552 407,1973.999 C407,1973.446 407.447,1972.999 408,1972.999 C408.552,1972.999 409,1973.446 409,1973.999 C409,1974.552 408.552,1974.999 408,1974.999 L408,1974.999 Z M405,1976 C404.447,1976 404,1975.552 404,1974.999 C404,1974.446 404.447,1973.999 405,1973.999 C405.552,1973.999 406,1974.446 406,1974.999 C406,1975.552 405.552,1976 405,1976 L405,1976 Z" id="Shape"></path>
            </g>
        </g>
    </g>
</svg>