<?xml version="1.0" encoding="UTF-8"?>
<svg width="16px" height="16px" viewBox="0 0 16 16" version="1.1" xmlns="http://www.w3.org/2000/svg" xmlns:xlink="http://www.w3.org/1999/xlink">
    <!-- Generator: Sketch 51.3 (57544) - http://www.bohemiancoding.com/sketch -->
    <title>Shape</title>
    <desc>Created with Sketch.</desc>
    <defs></defs>
    <g id="Pyctos" stroke="none" stroke-width="1" fill="none" fill-rule="evenodd">
        <g id="Artboard" transform="translate(-1297.000000, -1348.000000)" fill="#000000">
            <g id="16px" transform="translate(115.000000, 84.000000)">
                <path d="M1198,1275.999 L1198,1276.999 L1196,1276.999 L1196,1277.999 L1195,1277.999 L1195,1279.999 L1194,1279.999 L1194,1277.999 L1192,1277.999 L1192,1279.999 L1191,1279.999 L1191,1277.999 L1189,1277.999 L1189,1279.999 L1188,1279.999 L1188,1277.999 L1186,1277.999 L1186,1279.999 L1185,1279.999 L1185,1277.999 L1184,1277.999 L1184,1276.999 L1182,1276.999 L1182,1275.999 L1184,1275.999 L1184,1273.999 L1182,1273.999 L1182,1273 L1184,1273 L1184,1271 L1182,1271 L1182,1270 L1184,1270 L1184,1268 L1182,1268 L1182,1267 L1184,1267 L1184,1266.001 L1185,1266.001 L1185,1264.001 L1186,1264.001 L1186,1266.001 L1188,1266.001 L1188,1264.001 L1189,1264.001 L1189,1266.001 L1191,1266.001 L1191,1264.001 L1192,1264.001 L1192,1266.001 L1194,1266.001 L1194,1264.001 L1195,1264.001 L1195,1266.001 L1196,1266.001 L1196,1267 L1198,1267 L1198,1268 L1196,1268 L1196,1270 L1198,1270 L1198,1271 L1196,1271 L1196,1273 L1198,1273 L1198,1273.999 L1196,1273.999 L1196,1275.999 L1198,1275.999 L1198,1275.999 Z M1195,1266.998 L1194,1266.998 L1192,1266.998 L1191,1266.998 L1189,1266.998 L1188,1266.998 L1186,1266.998 L1185,1266.998 L1185,1267.998 L1185,1269.998 L1185,1270.998 L1185,1272.998 L1185,1273.997 L1185,1275.997 L1185,1276.997 L1186,1276.997 L1188,1276.997 L1189,1276.997 L1191,1276.997 L1192,1276.997 L1194,1276.997 L1195,1276.997 L1195,1275.997 L1195,1273.997 L1195,1272.998 L1195,1270.998 L1195,1269.998 L1195,1267.998 L1195,1266.998 L1195,1266.998 Z" id="Shape"></path>
            </g>
        </g>
    </g>
</svg>