<svg width="13" height="13" xmlns="http://www.w3.org/2000/svg">
  <path d="M12.881.688L8.695 4.875h3.085a.407.407 0 0 1 0 .813H7.718c-.006 0-.011-.003-.017-.004a.4.4 0 0 1-.255-.105c-.005-.004-.013-.003-.017-.008-.004-.004-.002-.011-.006-.016a.407.407 0 0 1-.107-.257c0-.005-.003-.01-.003-.017V1.22a.407.407 0 0 1 .812 0v3.085L12.312.118a.403.403 0 1 1 .57.57zm-7.194 7.03v4.062a.406.406 0 0 1-.812 0V8.696L.69 12.882a.405.405 0 0 1-.571-.57l4.186-4.187H1.22a.406.406 0 0 1 0-.813H5.28v.001l.017.002c.1.005.188.044.256.108.005.004.013.002.017.007.005.004.003.011.007.016a.404.404 0 0 1 .107.257l.002.015z" fill="#444" fill-rule="evenodd"/>
</svg>