<svg width="13" height="13" xmlns="http://www.w3.org/2000/svg">
  <path d="M12.594 4.874a.406.406 0 0 1-.406-.405V1.384L7.999 5.572a.406.406 0 0 1-.57 0 .405.405 0 0 1 0-.571L11.616.813H8.532a.406.406 0 0 1 0-.813h4.061c.007 0 .012.004.019.004a.41.41 0 0 1 .254.106c.005.005.014.002.018.006.004.005.002.013.006.018.063.069.102.157.107.256 0 .006.003.01.003.017v4.062a.406.406 0 0 1-.406.405zm-11.21 7.314h3.084a.407.407 0 0 1 0 .812H.406c-.006 0-.011-.003-.017-.003a.404.404 0 0 1-.255-.107c-.005-.004-.014-.002-.018-.007-.004-.005-.002-.012-.006-.017a.404.404 0 0 1-.107-.255c0-.007-.003-.012-.003-.017V8.53a.406.406 0 0 1 .812 0v3.086l4.189-4.188a.404.404 0 0 1 .57.57l-4.188 4.189z" fill="#444" fill-rule="evenodd"/>
</svg>