<?xml version="1.0" encoding="utf-8"?>
<!-- Generator: Adobe Illustrator 19.0.0, SVG Export Plug-In . SVG Version: 6.00 Build 0)  -->
<svg version="1.1" xmlns="http://www.w3.org/2000/svg" xmlns:xlink="http://www.w3.org/1999/xlink" x="0px" y="0px"
	 viewBox="-224 273 60 59" style="enable-background:new -224 273 60 59;" xml:space="preserve">
<style type="text/css">
	.st0{opacity:0.5;}
	.st1{fill:#FFFFFF;}
</style>
<g id="_x2D_-Symbols-_x2F_-Node-Cores-_x26_-Navigation" class="st0">
	<g id="UI-_x2F_-Component-_x2F_-Navigation-_x2F_-Bottom-Nav" transform="translate(-215.000000, -22.000000)">
		<g id="Bottom-nav-Module">
			<g id="Right" transform="translate(170.000000, 15.000000)">
				<g id="Icon-_x2F_-Expand-_x2F_-Expand-White" transform="translate(38.000000, 0.000000)">
					<path id="Page-1" class="st1" d="M-210.9,335.4h8.4c1,0,1.8,0.8,1.8,1.8c0,0.5-0.1,0.9-0.5,1.3c-0.4,0.4-0.8,0.5-1.3,0.5h-12.7
						c-0.5,0-1-0.2-1.3-0.5c-0.3-0.3-0.5-0.8-0.5-1.3v-12.9c0-1,0.8-1.8,1.8-1.8c1,0,1.8,0.8,1.8,1.8v8.5l11.9-12.1
						c0.8-0.8,1.8-0.8,2.5,0c0.8,0.8,0.8,1.8,0,2.6L-210.9,335.4z M-213.4,286.2v8.5c0,1-0.8,1.8-1.8,1.8c-0.5,0-0.9-0.1-1.3-0.5
						c-0.4-0.4-0.5-0.8-0.5-1.3v-12.9c0-0.5,0.2-1,0.5-1.3c0.3-0.3,0.8-0.5,1.3-0.5h12.7c1,0,1.8,0.8,1.8,1.8c0,1-0.8,1.8-1.8,1.8
						h-8.4l11.9,12.1c0.8,0.8,0.8,1.8,0,2.6c-0.8,0.8-1.8,0.8-2.5,0L-213.4,286.2z M-164.9,335.4h-8.4c-1,0-1.8,0.8-1.8,1.8
						c0,0.5,0.1,0.9,0.5,1.3c0.4,0.4,0.8,0.5,1.3,0.5h12.7c0.5,0,1-0.2,1.3-0.5c0.3-0.3,0.5-0.8,0.5-1.3v-12.9c0-1-0.8-1.8-1.8-1.8
						c-1,0-1.8,0.8-1.8,1.8v8.5l-11.9-12.1c-0.8-0.8-1.8-0.8-2.5,0c-0.8,0.8-0.8,1.8,0,2.6L-164.9,335.4z M-160.6,286.2v8.5
						c0,1,0.8,1.8,1.8,1.8c0.5,0,0.9-0.1,1.3-0.5c0.4-0.4,0.5-0.8,0.5-1.3v-12.9c0-0.5-0.2-1-0.5-1.3c-0.3-0.3-0.8-0.5-1.3-0.5
						h-12.7c-1,0-1.8,0.8-1.8,1.8c0,1,0.8,1.8,1.8,1.8h8.4l-11.9,12.1c-0.8,0.8-0.8,1.8,0,2.6c0.8,0.8,1.8,0.8,2.5,0L-160.6,286.2z"
						/>
				</g>
			</g>
		</g>
	</g>
</g>
</svg>
