<?xml version="1.0" encoding="utf-8"?>
<!-- Generator: Adobe Illustrator 19.0.0, SVG Export Plug-In . SVG Version: 6.00 Build 0)  -->
<svg version="1.1" id="Capa_1" xmlns="http://www.w3.org/2000/svg" xmlns:xlink="http://www.w3.org/1999/xlink" x="0px" y="0px"
	 viewBox="-224 272 60 60" style="enable-background:new -224 272 60 60;" xml:space="preserve">
<style type="text/css">
	.st0{opacity:0.5;}
	.st1{fill:#FFFFFF;}
</style>
<title>Icon</title>
<desc>Created with Sketch.</desc>
<g id="_x2D_-Symbols-_x2F_-Node-Cores-_x26_-Navigation" class="st0">
	<g id="UI-_x2F_-Component-_x2F_-Navigation-_x2F_-Bottom-Nav" transform="translate(-103.000000, -22.000000)">
		<g id="Bottom-nav-Module">
			<g id="Left" transform="translate(15.000000, 15.000000)">
				<g id="Icon-_x2F_-Plus-_x2F_-Plus-Bold-White" transform="translate(81.000000, 0.000000)">
					<path id="Page-1" class="st1" d="M-184,306v-24.6c0-1.3-1.1-2.4-2.4-2.4h-1.2c-1.3,0-2.4,1.1-2.4,2.4V306h-24.6
						c-1.3,0-2.4,1.1-2.4,2.4v1.2c0,1.3,1.1,2.4,2.4,2.4h24.6v24.6c0,1.3,1.1,2.4,2.4,2.4h1.2c1.3,0,2.4-1.1,2.4-2.4V312h24.6
						c1.3,0,2.4-1.1,2.4-2.4v-1.2c0-1.3-1.1-2.4-2.4-2.4H-184z"/>
				</g>
			</g>
		</g>
	</g>
</g>
</svg>
