<svg width="17" height="17" xmlns="http://www.w3.org/2000/svg">
  <path d="M9.00595238 8.0952381h3.54989202c.2190011 0 .3965366.18775576.3965366.4047619 0 .22354383-.1817616.4047619-.3965366.4047619H9.00595238v3.5498921c0 .219001-.18775577.3965365-.4047619.3965365-.22354383 0-.40476191-.1817616-.40476191-.3965365V8.9047619H4.64653652C4.42753545 8.9047619 4.25 8.71700614 4.25 8.5c0-.22354383.18176159-.4047619.39653652-.4047619h3.54989205V4.54534604c0-.21900107.18775577-.39653652.40476191-.39653652.22354382 0 .4047619.1817616.4047619.39653652V8.0952381zM8.5 17C3.80557963 17 0 13.1944204 0 8.5 0 3.80557963 3.80557963 0 8.5 0 13.1944204 0 17 3.80557963 17 8.5c0 4.6944204-3.8055796 8.5-8.5 8.5zm0-.8095238c4.2473327 0 7.6904762-3.4431435 7.6904762-7.6904762 0-4.24733272-3.4431435-7.69047619-7.6904762-7.69047619C4.25266728.80952381.80952381 4.25266728.80952381 8.5c0 4.2473327 3.44314347 7.6904762 7.69047619 7.6904762z" fill="#2D2D2D" fill-rule="evenodd"/>
</svg>