<svg width="17" height="12" xmlns="http://www.w3.org/2000/svg" xmlns:xlink="http://www.w3.org/1999/xlink">
  <defs>
    <path d="M7.5.68449603c1.52415588.9094013 2.5527115 2.63326596 2.5527115 4.61018723S9.02415588 8.99546919 7.5 9.90487049c-1.52415588-.9094013-2.55271152-2.63326596-2.55271152-4.61018723S5.97584412 1.59389733 7.5.68449603z" id="a"/>
  </defs>
  <g transform="translate(1 1)" stroke="#000" stroke-width=".69" fill="none" fill-rule="evenodd">
    <path d="M7.5.68449603C8.23030678.24875193 9.07439814 0 9.97364424 0 12.7496239 0 15 2.37051044 15 5.29468326c0 2.92417282-2.2503761 5.29468324-5.02635576 5.29468324-.8992461 0-1.74333746-.2487519-2.47364424-.68449601-.73030678.43574411-1.57439814.68449601-2.47364424.68449601C2.25037613 10.5893665 0 8.21885608 0 5.29468326 0 2.37051044 2.25037613 0 5.02635576 0 5.92560186 0 6.76969322.24875192 7.5.68449603z" fill="#6F6F6F"/>
    <use fill="#FDFDFD" xlink:href="#a"/>
  </g>
</svg>