<svg width="17" height="12" xmlns="http://www.w3.org/2000/svg">
  <g stroke="#000" stroke-width=".69" fill="none" fill-rule="evenodd">
    <path d="M8.5 1.64639941C9.23030678 1.23490727 10.07439814 1 10.97364424 1 13.7496239 1 16 3.23857625 16 6s-2.2503761 5-5.02635576 5c-.8992461 0-1.74333746-.23490727-2.47364424-.64639941C7.76969322 10.76509273 6.92560186 11 6.02635576 11 3.25037613 11 1 8.76142375 1 6s2.25037613-5 5.02635576-5C6.92560186 1 7.76969322 1.23490727 8.5 1.64639941z"/>
    <path d="M8.77031885 1.64719004C10.27159879 2.50618556 11.3276353 4.13367989 11.3276353 6c0 1.86632011-1.05603651 3.49381444-2.55731645 4.35280996C7.14150663 9.49381444 6.08547009 7.86632011 6.08547009 6c0-1.86632011 1.05603654-3.49381444 2.68484876-4.35280996z" fill="#515151"/>
  </g>
</svg>