<svg width="17" height="12" xmlns="http://www.w3.org/2000/svg">
  <g fill="#6F6F6F" stroke="#000" stroke-width=".69" fill-rule="evenodd">
    <path d="M8.5 1.68449603C9.23030678 1.24875193 10.07439814 1 10.97364424 1 13.7496239 1 16 3.37051044 16 6.29468326c0 2.92417282-2.2503761 5.29468324-5.02635576 5.29468324-.8992461 0-1.74333746-.2487519-2.47364424-.68449601-.73030678.43574411-1.57439814.68449601-2.47364424.68449601C3.25037613 11.5893665 1 9.21885608 1 6.29468326 1 3.37051044 3.25037613 1 6.02635576 1 6.92560186 1 7.76969322 1.24875192 8.5 1.68449603z"/>
    <path d="M8.5 1.68449603c1.52415588.9094013 2.5527115 2.63326596 2.5527115 4.61018723S10.02415588 9.99546919 8.5 10.90487049c-1.52415588-.9094013-2.55271152-2.63326596-2.55271152-4.61018723S6.97584412 2.59389733 8.5 1.68449603z"/>
  </g>
</svg>