<svg width="15" height="16" xmlns="http://www.w3.org/2000/svg">
  <path d="M14.554472 15.999h-14.103c-.782-1.199-.465-3.599.317-4.398.373-.381 3.165-1.1 4.501-1.428-1.411-1.096-2.272-3.13-2.272-5.069 0-2.819.818-5.104 4.503-5.104 3.684 0 4.502 2.285 4.502 5.104 0 1.934-.855 3.962-2.26 5.06 1.306.326 4.14 1.065 4.501 1.438.778.798 1.087 3.198.311 4.397zm-.952-3.555c-.513-.274-2.719-.895-4.6-1.346V9.514c1.254-.854 1.997-2.707 1.997-4.393 0-2.279-.583-4.127-3.498-4.127-2.916 0-3.499 1.848-3.499 4.127 0 1.687.744 3.542 2 4.395v1.597c-1.891.444-4.086 1.054-4.591 1.33-.327.412-.612 1.731-.409 2.558h13c.201-.826-.078-2.142-.4-2.557z" fill="#FFF" fill-rule="evenodd"/>
</svg>