<svg width="16" height="16" xmlns="http://www.w3.org/2000/svg">
  <path d="M8 16.001c-4.419 0-8-3.582-8-8C0 3.582 3.581 0 8 0c4.418 0 8 3.582 8 8.001 0 4.418-3.582 8-8 8zm0-1c1.489 0 2.863-.474 3.999-1.267l-1.973-2.303c-.597.353-1.284.568-2.026.568-.743 0-1.431-.216-2.026-.568l-1.973 2.303c1.135.793 2.509 1.267 3.999 1.267zm3-7c0-1.657-1.344-3-3-3-1.657 0-3 1.343-3 3C5 9.657 6.343 11 8 11c1.656 0 3-1.343 3-2.999zm-10 0c0 2.015.863 3.817 2.226 5.095l1.943-2.27C4.447 10.101 4 9.103 4 8.001c0-.965.355-1.837.923-2.528L2.951 3.171C1.748 4.428 1 6.123 1 8.001zM8 1c-1.627 0-3.104.578-4.293 1.508l1.943 2.27c.66-.483 1.469-.776 2.35-.776s1.688.293 2.35.776l1.943-2.27C11.104 1.578 9.627 1 8 1zm5.048 2.171l-1.972 2.302c.568.691.924 1.563.924 2.528 0 1.103-.447 2.101-1.169 2.825l1.943 2.27C14.136 11.819 15 10.016 15 8.001c0-1.878-.749-3.573-1.952-4.83z" fill="#FFF" fill-rule="evenodd"/>
</svg>