<svg width="16" height="16" xmlns="http://www.w3.org/2000/svg">
  <path d="M7.99975 16.00575c-.316 0-.615-.124-.84-.347l-6.813-6.82c-.462-.464-.462-1.218-.002-1.681l2.496-2.498c.154-.154.391-.191.585-.091.192.102.298.316.261.531-.025.143-.037.258-.037.361 0 1.094.889 2.002 1.982 2.002s1.893-.908 1.893-2.002c0-1.095-.799-1.985-1.893-1.985-.103 0-.217.012-.36.037-.216.039-.429-.068-.53-.262-.101-.193-.064-.431.09-.585l2.328-2.33c.45-.448 1.229-.447 1.679-.001l1.704 1.706c.355-1.104 1.394-1.909 2.615-1.909 1.514 0 2.747 1.234 2.747 2.751 0 1.223-.803 2.262-1.909 2.617l1.656 1.656c.462.464.462 1.218 0 1.681l-6.813 6.82c-.225.225-.522.349-.839.349zm-5.262-9.828l-1.686 1.687c-.072.073-.072.193.002.268l6.812 6.818c.096.096.171.097.269-.001l6.812-6.818c.072-.073.072-.193-.001-.268l-2.402-2.403c-.15-.15-.189-.38-.097-.57.093-.192.294-.306.508-.279l.076.009c.042.006.084.013.128.013.963 0 1.747-.784 1.747-1.748 0-.966-.784-1.75-1.747-1.75-.964 0-1.748.784-1.748 1.75 0 .04.007.079.012.118l.011.089c.022.211-.09.414-.281.505-.189.091-.419.052-.568-.098l-2.45-2.454c-.095-.094-.17-.096-.268.001l-1.516 1.519c1.3.321 2.175 1.499 2.175 2.898 0 1.646-1.247 3.002-2.892 3.002-1.399-.002-2.575-.987-2.896-2.288z" fill="#FFF" fill-rule="evenodd"/>
</svg>