<svg width="17" height="19" xmlns="http://www.w3.org/2000/svg">
  <g fill="#FFF" fill-rule="nonzero">
    <path d="M15.929 7.25454545l.408-.12090909C15.487 4.13681818 14.3395 2.40954545 12.733 1.52c-1.6065-.88954546-3.638-.86363636-6.5705 0S1.53 3.56681818.6545 5.18181818c-.8755 1.615-.85 3.705 0 6.67590912.85 2.9709091 2.006 4.7327272 3.5955 5.6136363.85828017.4596966 1.81804917.6886228 2.788.665 1.28903911-.0374994 2.56594706-.2643977 3.791-.6736363 2.9325-.8636364 4.6325-2.0295455 5.508-3.6531818.8755-1.6236364.85-3.6963637 0-6.67590914l-.408.12090909zM15.5975 13.395c-.7565 1.4163636-2.3035 2.4181818-5.0065 3.2386364-2.703.8204545-4.522.8636363-5.95.0777272s-2.38-2.3404545-3.1875-5.0868181C.646 8.87818182.6035 7.03 1.377 5.57909091c.7735-1.45090909 2.329-2.38363636 5.032-3.21272727 1.14801338-.38515911 2.34461916-.6003969 3.553-.63909091.8210067-.0218609 1.6340467.16831656 2.363.55272727 1.394.76863636 2.38 2.34045455 3.196 5.10409091.816 2.73772729.8415 4.59454549.0765 6.01090909z"/>
    <path d="M13.022 9.12863636l-2.1165.80318182-.85-2.38363636L12.172 6.745c.1427276-.05399582.2462618-.18125585.2716021-.33384248.0253404-.15258662-.0313627-.30731829-.14875-.40590909-.1173872-.0985908-.2776245-.12606243-.4203521-.07206661l-2.1165.80318182-.7905-2.15045455c-.08215236-.22417739-.32761224-.33824302-.54825-.25477271-.22063775.0834703-.33290235.33286804-.25075.55704544l.7905 2.15045454-2.346.86363637L5.7885 5.795c-.05314326-.14501735-.17839392-.25021248-.32857128-.2759594-.15017736-.02574692-.3024659.03186593-.3995.15113636-.0970341.11927043-.12407198.28207842-.07092872.42709577L5.78 8.24772727l-2.1165.80318182c-.22063775.08347031-.33290234.33286805-.25074999.55704545.08215236.2241774.32761223.33824303.54824999.25477273l2.1165-.80318182.85 2.38363635-2.1165.8031818c-.1427276.0539959-.24626176.1812559-.27160215.3338425-.02534039.1525866.03136279.3073183.14875.4059091.11738721.0985908.27762455.1260624.42035215.0720666L7.225 12.255l.7905 2.1504545c.05314325.1450174.17839392.2502125.32857128.2759595.15017736.0257469.3024659-.031866.39950001-.1511364.0970341-.1192704.12407197-.2820784.07092871-.4270958l-.7905-2.1504545 2.346-.8636364.7905 2.1504546c.0821524.2241774.3276122.338243.54825.2547727s.3329024-.3328681.25075-.5570455l-.7905-2.1504545 2.1165-.80318184c.1427276-.05399582.2462618-.18125585.2716021-.33384247.0253404-.15258662-.0313627-.30731829-.14875-.40590909-.1173872-.0985908-.2776245-.12606244-.4203521-.07206662l.034-.04318182zM7.7605 11.1409091l-.85-2.38363637 2.346-.86363637.85 2.38363634-2.346.8636364z"/>
  </g>
</svg>