<svg width="16" height="16" viewBox="0 0 16 16" fill="none" xmlns="http://www.w3.org/2000/svg">
<path fill-rule="evenodd" clip-rule="evenodd" d="M14.5 16H1.5C0.672 16 0 15.328 0 14.5V1.5C0 0.672 0.672 0 1.5 0H14.5C15.328 0 16 0.671 16 1.5V14.5C16 15.328 15.328 16 14.5 16ZM15 1.5C15 1.224 14.775 1 14.5 1H1.5C1.224 1 1 1.224 1 1.5V14.5C1 14.776 1.224 15 1.5 15H14.5C14.775 15 15 14.776 15 14.5V1.5ZM13 13.001H5V14.001H4V13.001H3C2.724 13.001 2.5 12.777 2.5 12.501C2.5 12.225 2.724 12.001 3 12.001H4V11.001H5V12.001H13C13.275 12.001 13.5 12.224 13.5 12.501C13.5 12.778 13.275 13.001 13 13.001ZM13 9.001H12V10H11V9.001H3C2.724 9.001 2.5 8.776 2.5 8.5C2.5 8.224 2.724 8 3 8H11V6.999H12V8H13C13.275 8 13.5 8.224 13.5 8.5C13.5 8.776 13.275 9.001 13 9.001ZM13 5.001H8V6.001H7V5.001H3C2.724 5.001 2.5 4.777 2.5 4.501C2.5 4.225 2.724 4.001 3 4.001H7V3.001H8V4.001H13C13.275 4.001 13.5 4.225 13.5 4.501C13.5 4.776 13.275 5.001 13 5.001Z" fill="#FEFEFE"/>
</svg>
