<svg width="16" height="15" viewBox="0 0 16 15" fill="none" xmlns="http://www.w3.org/2000/svg">
<path fill-rule="evenodd" clip-rule="evenodd" d="M2.37843 4.64507C3.692 4.64507 4.75687 3.60524 4.75687 2.32253C4.75687 1.03983 3.692 0 2.37843 0C1.06486 0 0 1.03983 0 2.32253C0 3.60524 1.06486 4.64507 2.37843 4.64507ZM7.80448 12.6775C7.80448 13.9602 6.73962 15 5.42605 15C4.11248 15 3.04762 13.9602 3.04762 12.6775C3.04762 11.3948 4.11248 10.3549 5.42605 10.3549C6.73962 10.3549 7.80448 11.3948 7.80448 12.6775ZM6.85311 12.6775C6.85311 13.4471 6.2142 14.071 5.42605 14.071C4.63791 14.071 3.99899 13.4471 3.99899 12.6775C3.99899 11.9078 4.63791 11.2839 5.42605 11.2839C6.2142 11.2839 6.85311 11.9078 6.85311 12.6775ZM3.80549 2.32253C3.80549 3.09215 3.16658 3.71606 2.37843 3.71606C1.59029 3.71606 0.951373 3.09215 0.951373 2.32253C0.951373 1.55291 1.59029 0.929014 2.37843 0.929014C3.16658 0.929014 3.80549 1.55291 3.80549 2.32253ZM13.6216 9.10791C14.9351 9.10791 16 8.06807 16 6.78537C16 5.50267 14.9351 4.46284 13.6216 4.46284C12.308 4.46284 11.2431 5.50267 11.2431 6.78537C11.2431 8.06807 12.308 9.10791 13.6216 9.10791ZM15.0486 6.78537C15.0486 7.55499 14.4097 8.17889 13.6216 8.17889C12.8334 8.17889 12.1945 7.55499 12.1945 6.78537C12.1945 6.01575 12.8334 5.39185 13.6216 5.39185C14.4097 5.39185 15.0486 6.01575 15.0486 6.78537ZM9.02927 5.40971C9.27541 5.49668 9.54759 5.37345 9.63861 5.13069C9.72899 4.88961 9.60234 4.62356 9.35658 4.53672L6.22495 3.43021C5.97881 3.34324 5.70663 3.46648 5.61561 3.70923C5.52523 3.95031 5.65188 4.21637 5.89764 4.3032L9.02927 5.40971ZM10.8952 8.67115C11.0553 8.87747 11.0136 9.16618 10.8044 9.31921L8.83529 10.8713C8.62642 11.0241 8.32759 10.9823 8.16855 10.7774C8.0084 10.5711 8.05017 10.2824 8.25936 10.1293L10.2285 8.57727C10.4373 8.42447 10.7362 8.46626 10.8952 8.67115Z" fill="#FEFEFE"/>
</svg>
