<svg width="16" height="16" viewBox="0 0 16 16" fill="none" xmlns="http://www.w3.org/2000/svg">
<path fill-rule="evenodd" clip-rule="evenodd" d="M8.32823 2.3508C11.1876 2.51512 13.4849 4.81229 13.6492 7.67177H15.6718C15.853 7.67177 16 7.81872 16 8C16 8.18128 15.853 8.32823 15.6718 8.32823H13.6492C13.4849 11.1876 11.1876 13.4849 8.32823 13.6492V15.6718C8.32823 15.853 8.18128 16 8 16C7.81872 16 7.67177 15.853 7.67177 15.6718V13.6492C4.81239 13.4849 2.51513 11.1876 2.3508 8.32823H0.328231C0.146954 8.32823 0 8.18128 0 8C0 7.81872 0.146954 7.67177 0.32823 7.67177H2.3508C2.51512 4.81229 4.81238 2.51512 7.67177 2.3508V0.328231C7.67177 0.146954 7.81872 0 8 0C8.18128 0 8.32823 0.146954 8.32823 0.32823V2.3508ZM8 2.99181C5.23844 2.99181 2.99181 5.23844 2.99181 8C2.99181 10.7616 5.23844 13.0082 8 13.0082C10.7616 13.0082 13.0082 10.7616 13.0082 8C13.0082 5.23844 10.7616 2.99181 8 2.99181ZM4.81297 8C4.81297 6.24264 6.24264 4.81297 8 4.81297C9.75736 4.81297 11.187 6.24264 11.187 8C11.187 9.75736 9.75736 11.187 8 11.187C6.24264 11.187 4.81297 9.75736 4.81297 8Z" fill="white"/>
</svg>
