<svg xmlns="http://www.w3.org/2000/svg" viewBox="-222 274 71 71">
  <path d="M-211.6 308c.7-12.7 10.9-22.9 23.6-23.6v-9.6c0-.5.4-.9.9-.9h1.2c.5 0 .9.4.9.9v9.6c12.7.7 22.9 10.9 23.6 23.6h9.6c.5 0 .9.4.9.9v1.2c0 .5-.4.9-.9.9h-9.6c-.7 12.7-10.9 22.9-23.6 23.6v9.6c0 .5-.4.9-.9.9h-1.2c-.5 0-.9-.4-.9-.9v-9.6c-12.7-.7-22.9-10.9-23.6-23.6h-9.6c-.5 0-.9-.4-.9-.9v-1.2c0-.5.4-.9.9-.9h9.6zm2.9 1.5c0 12.3 10 22.2 22.2 22.2s22.2-10 22.2-22.2-10-22.2-22.2-22.2-22.2 9.9-22.2 22.2zm8.1 0c0-7.8 6.3-14.1 14.1-14.1s14.1 6.3 14.1 14.1-6.3 14.1-14.1 14.1-14.1-6.3-14.1-14.1z" fill="#8f8f8f"/>
</svg>
