<svg xmlns="http://www.w3.org/2000/svg" width="120" height="120" viewBox="0 0 120 120">
  <path fill="#2D2D2D" fill-rule="evenodd" d="M59,73.9906311 C59,74.5480902 58.5446944,75 58.0081969,75 L39.9918031,75 C39.4440454,75 39,74.5566468 39,73.9906311 L39,72.0093689 C39,71.4519098 39.4553056,71 39.9918031,71 L58.0081969,71 C58.5559546,71 59,71.4433532 59,72.0093689 L59,73.9906311 Z M60,56.9447664 C60,63.0198206 55.076468,67.9693473 49,67.9998587 L49,67.9998587 C42.9248678,68.0303634 38,63.1316235 38,57.0552336 L38,57.0552336 C38,50.9801794 42.923532,46.0306527 49,46.0001413 L49,46.0001413 C55.0751322,45.9696366 60,50.8683765 60,56.9447664 L60,56.9447664 Z M56,56.9648513 C56,60.8307949 52.8581267,63.9805375 49,63.9999101 L49,63.9999101 C45.1340068,64.0193221 42,60.8932258 42,57.0351487 L42,57.0351487 C42,53.1692051 45.1418733,50.0194625 49,50.0000899 L49,50.0000899 C52.8659932,49.9806779 56,53.1067742 56,56.9648513 L56,56.9648513 Z M84,73.9906311 C84,74.5480902 83.5446944,75 83.0081969,75 L64.9918031,75 C64.4440454,75 64,74.5566468 64,73.9906311 L64,72.0093689 C64,71.4519098 64.4553056,71 64.9918031,71 L83.0081969,71 C83.5559546,71 84,71.4433532 84,72.0093689 L84,73.9906311 Z M84,65.9906311 C84,66.5480902 83.5446944,67 83.0081969,67 L64.9918031,67 C64.4440454,67 64,66.5566468 64,65.9906311 L64,64.0093689 C64,63.4519098 64.4553056,63 64.9918031,63 L83.0081969,63 C83.5559546,63 84,63.4433532 84,64.0093689 L84,65.9906311 Z M84,57.9906311 C84,58.5480902 83.5446944,59 83.0081969,59 L64.9918031,59 C64.4440454,59 64,58.5566468 64,57.9906311 L64,56.0093689 C64,55.4519098 64.4553056,55 64.9918031,55 L83.0081969,55 C83.5559546,55 84,55.4433532 84,56.0093689 L84,57.9906311 Z M84,49.9906311 C84,50.5480902 83.5446944,51 83.0081969,51 L64.9918031,51 C64.4440454,51 64,50.5566468 64,49.9906311 L64,48.0093689 C64,47.4519098 64.4553056,47 64.9918031,47 L83.0081969,47 C83.5559546,47 84,47.4433532 84,48.0093689 L84,49.9906311 Z M92,81.9970177 C92,82.5509495 91.5539448,83 91.0010159,83 L30.9989841,83 C30.4472604,83 30,82.5546192 30,81.9970177 L30,39.0029823 C30,38.4490505 30.4460552,38 30.9989841,38 L91.0010159,38 C91.5527396,38 92,38.4453808 92,39.0029823 L92,81.9970177 Z M88,42 L34,42 L34,79 L88,79 L88,42 Z"/>
</svg>
