<?xml version="1.0" encoding="UTF-8"?>
<svg width="15px" height="17px" viewBox="0 0 15 17" version="1.1" xmlns="http://www.w3.org/2000/svg" xmlns:xlink="http://www.w3.org/1999/xlink">
    <!-- Generator: Sketch 50.2 (55047) - http://www.bohemiancoding.com/sketch -->
    <title>Trash</title>
    <desc>Created with Sketch.</desc>
    <defs></defs>
    <g id="Working" stroke="none" stroke-width="1" fill="none" fill-rule="evenodd">
        <g id="MW/1" transform="translate(-887.000000, -234.000000)" fill="#ffffff">
            <g id="Content" transform="translate(322.000000, 61.000000)">
                <g id="More_Super-user_Actions" transform="translate(493.000000, 54.000000)">
                    <g id="Delete" transform="translate(72.000000, 118.000000)">
                        <path d="M14.4444444,3.63793103 L10,3.63793103 L10,1.5862069 C10,1.29310345 9.72222222,1 9.44444444,1 L5.83333333,1 C5.55555556,1 5.27777778,1.29310345 5.27777778,1.5862069 L5.27777778,3.63793103 L0.555555556,3.63793103 C0.277777778,3.63793103 0,3.93103448 0,4.22413793 C1.583595e-17,4.51724138 0.277777778,4.81034483 0.555555556,4.81034483 L2.22222222,4.81034483 L2.22222222,17.4137931 C2.22222222,17.7068966 2.5,18 2.77777778,18 L12.7777778,18 C13.0555556,18 13.3333333,17.7068966 13.3333333,17.4137931 L13.3333333,4.81034483 L14.4444444,4.81034483 C14.7222222,4.81034483 15,4.51724138 15,4.22413793 C15,3.93103448 14.7222222,3.63793103 14.4444444,3.63793103 Z M6.38888889,2.17241379 L8.88888889,2.17241379 L8.88888889,3.34482759 L6.38888889,3.34482759 L6.38888889,2.17241379 Z M12.2222222,16.8275862 L3.33333333,16.8275862 L3.33333333,4.81034483 L12.2222222,4.81034483 L12.2222222,16.8275862 Z M10,7.74137931 L10,13.3103448 C10,13.6139825 9.75,13.8965517 9.44444444,13.8965517 C9.13888889,13.8965517 8.88888889,13.6139825 8.88888889,13.3103448 L8.88888889,7.74137931 C8.88888889,7.43774165 9.13888889,7.15517241 9.44444444,7.15517241 C9.75,7.15517241 10,7.40634507 10,7.74137931 Z M6.38888889,7.74137931 L6.38888889,13.3103448 C6.38888889,13.6139825 6.13888889,13.8965517 5.83333333,13.8965517 C5.52777778,13.8965517 5.27777778,13.6139825 5.27777778,13.3103448 L5.27777778,7.74137931 C5.27777778,7.43774165 5.52777778,7.15517241 5.83333333,7.15517241 C6.13888889,7.15517241 6.38888889,7.40634507 6.38888889,7.74137931 Z" id="Trash"></path>
                    </g>
                </g>
            </g>
        </g>
    </g>
</svg>