<?xml version="1.0" encoding="UTF-8"?>
<svg width="100px" height="100px" viewBox="0 0 100 100" version="1.1" xmlns="http://www.w3.org/2000/svg" xmlns:xlink="http://www.w3.org/1999/xlink">
    <!-- Generator: Sketch 51.2 (57519) - http://www.bohemiancoding.com/sketch -->
    <title>Graphics / Avatar/Astronaut reading</title>
    <desc>Created with Sketch.</desc>
    <defs/>
    <g id="Graphics-/-Avatar/Astronaut-reading" stroke="none" stroke-width="1" fill="none" fill-rule="evenodd">
        <circle id="border" fill="#646464" cx="50" cy="50" r="50"/>
        <circle id="image" fill="#000000" cx="50" cy="50" r="45"/>
        <g id="-White@3x" transform="translate(34.000000, 25.000000)" fill="#FFFFFF">
            <path d="M15.991906,18.7225802 C20.8069504,18.7225802 24.7159291,14.7403011 24.7159291,9.91964755 C24.7159291,7.82371117 24.1565466,6.70699631 23.6691803,6.07821542 C22.2723988,3.91353237 17.5980373,3.70393872 16.2012557,3.70393872 L15.991906,3.70393872 C11.2455281,3.70393872 9.22404689,5.17109414 8.59599757,5.7998751 L8.592648,5.86862177 C8.45196494,6.00946868 8.45196494,6.07821542 8.45196494,6.07821542 C7.96459875,6.70699631 7.33654943,7.82371117 7.33654943,9.91964755 C7.33654943,14.7403011 11.1768614,18.7225802 15.991906,18.7225802 Z M8.87401405,6.42530249 C8.87401405,6.42530249 8.94268084,6.35655575 9.01469711,6.28445558 L9.08336383,6.21570884 C9.57073009,5.7965216 11.4548779,4.32936611 16.0605727,4.32936611 L16.2699224,4.32936611 C17.1759882,4.32936611 21.9910326,4.39811285 23.1784645,6.42530249 C23.5284973,6.84448972 24.0845302,7.89245791 24.0845302,9.84754731 C24.0845302,14.3898606 20.4569176,18.0216991 15.9885563,18.0216991 C11.5235446,18.0216991 7.8925824,14.3177604 7.8925824,9.84754731 C7.96459875,7.89245791 8.52398129,6.91658996 8.87401405,6.42530249 Z M31.1337554,27.2471725 L31.1337554,20.3305826 L28.4122085,20.8906168 C28.3435418,20.6810231 28.2715255,20.5401762 28.2028587,20.3305826 L28.2028587,11.3180563 C28.2028587,10.5484284 27.5748095,9.85090081 26.7374104,9.85090081 L26.459394,9.85090081 C26.3187109,4.40146634 21.7130162,0 16.0605727,0 C10.4081291,0 5.80243437,4.40146634 5.66175138,9.91964755 L5.31171854,9.91964755 C4.54298623,9.91964755 3.84627026,10.5484284 3.84627026,11.386803 L3.84627026,20.468076 C3.77760355,20.608923 3.7055872,20.7464164 3.63692049,20.95601 L0.915373566,20.3959758 L0.915373566,27.3125658 C0.287324313,27.5909061 -0.0627084519,28.219687 0.00930782639,28.9205681 L0.428007374,32.4149132 C0.496674087,32.8341005 0.637357148,33.1124408 0.915373566,33.3941347 L0.915373566,38.7027222 L7.33654943,39.9602841 L7.33654943,51 L24.5718965,51 L24.5718965,48.2065361 L24.5718965,48.0656891 L24.5718965,39.8915373 L31.0617391,38.6339755 L31.0617391,33.325388 C31.3397556,33.1157943 31.5491053,32.7653537 31.5491053,32.3461665 L31.9678048,28.8518214 C32.1118375,28.1542938 31.7618047,27.5255129 31.1337554,27.2471725 Z M26.7374104,10.898869 C27.0154269,10.898869 27.2247766,11.1084627 27.2247766,11.386803 L27.2247766,18.7225802 C26.5280607,17.7433588 25.6186453,16.8362375 24.5718965,16.0666097 C25.6186453,14.5994542 26.3153613,12.8539585 26.4560443,10.9676157 L26.7374104,10.9676157 L26.7374104,10.898869 Z M16.0605727,0.975867953 C21.2943167,0.975867953 25.4813119,5.09899397 25.4813119,10.1979879 C25.4813119,15.2969818 21.22565,19.3513611 16.0605727,19.3513611 C10.8268287,19.3513611 6.63983346,15.2282351 6.63983346,10.1292412 C6.63983346,5.03024723 10.8268287,0.975867953 16.0605727,0.975867953 Z M4.82435235,11.3180563 C4.82435235,11.0397159 5.03370205,10.8301223 5.31171854,10.8301223 L5.66175137,10.8301223 C5.80243437,12.716465 6.4991504,14.4619608 7.5458992,16.0012165 C6.4991504,16.7708443 5.59308466,17.6779655 4.89301906,18.7259337 L4.89301906,11.3180563 L4.82435235,11.3180563 Z M8.10528174,16.7674908 C9.98942964,18.9321739 12.8516595,20.3305826 16.0605727,20.3305826 C19.2694858,20.3305826 22.063049,18.9321739 24.0158635,16.6987441 C25.6219949,17.8875592 26.8060772,19.3547146 27.5061428,21.0314637 L16.0605727,23.3336402 L4.61500257,21.0968569 C5.31506817,19.4201079 6.4991504,17.8842057 8.10528174,16.7674908 Z M1.33742275,32.2053196 L0.987389913,29.061415 L0.9187232,28.7109745 C0.9187232,28.5701276 0.9187232,28.5013809 0.987389913,28.4326341 C1.05605663,28.2230405 1.2654064,28.0134469 1.54677245,28.0134469 C1.54677245,28.0134469 1.68745551,28.0134469 1.82478894,27.9447002 L2.03413871,27.9447002 L2.3121552,27.9447002 C3.56825377,27.9447002 4.61500257,28.8518214 4.75568557,30.1093832 C4.89636863,31.2981983 4.12763631,32.4149132 3.0122208,32.6932536 C2.87153774,32.6932536 2.45283826,32.7620002 2.10615506,32.8341005 L1.89680529,32.8341005 C1.61543917,32.6966071 1.40608946,32.4870134 1.33742275,32.2053196 Z M1.82478894,33.672475 L1.965472,33.672475 L2.17482177,33.672475 C2.94355409,33.6037283 3.15290386,33.5316281 3.22157057,33.5316281 C4.75568557,33.1124408 5.80243437,31.5765386 5.59308466,29.9685363 C5.38373489,28.2917872 3.98695325,27.0342254 2.3121552,27.0342254 L1.96212237,27.0342254 L1.82143937,27.0342254 L1.82143937,21.3751973 L3.35555444,21.6535376 L4.26162017,21.8631312 L15.5665072,24.0999145 L15.5665072,40.589065 L1.74942303,37.8643477 L1.74942303,33.672475 L1.82478894,33.672475 Z M15.5732064,49.9520318 L8.38329823,49.9520318 L8.38329823,48.8353169 L15.5698568,48.8353169 L15.5698568,49.9520318 L15.5732064,49.9520318 Z M8.38329823,47.7873488 C8.592648,45.901006 10.1267631,44.5025973 11.9422442,44.5025973 C13.7577253,44.5025973 15.2918404,45.9697528 15.5011901,47.7873488 L8.38329823,47.7873488 Z M12.0142605,43.5954761 C10.5488122,43.5954761 9.22404689,44.2930037 8.38664786,45.4130721 L8.38664786,40.0323843 L15.6452228,41.430793 L15.6452228,45.4818188 C14.8044741,44.3617504 13.4797088,43.5954761 12.0142605,43.5954761 Z M23.737847,49.9520318 L16.5479389,49.9520318 L16.5479389,48.8353169 L23.737847,48.8353169 L23.737847,49.9520318 Z M16.5479389,47.7873488 C16.7572886,45.901006 18.2914037,44.5025973 20.1068848,44.5025973 C21.9223659,44.5025973 23.456481,45.9697528 23.6658308,47.7873488 L16.5479389,47.7873488 Z M23.737847,45.4097186 C22.900448,44.2930037 21.5723332,43.5954761 20.1068848,43.5954761 C18.5727697,43.5954761 17.2446549,44.3651039 16.4072559,45.5505655 L16.4072559,41.4995397 L23.6658308,40.101131 L23.6658308,45.4097186 L23.737847,45.4097186 Z M30.2963563,37.8643477 L16.4792721,40.589065 L16.4792721,24.103268 L27.7841592,21.8664847 L28.690225,21.6568911 L30.22434,21.3785508 L30.22434,27.0375789 L30.083657,27.0375789 L29.7336242,27.0375789 C28.0588261,27.0375789 26.6620445,28.2951407 26.4526948,29.9718898 C26.243345,31.5798921 27.2900938,33.1157943 28.8242088,33.5349816 C28.8928756,33.5349816 29.1022253,33.6037283 29.8709576,33.6758285 L30.0803074,33.6758285 L30.2209904,33.6758285 L30.2209904,37.8643477 L30.2963563,37.8643477 Z M31.1337554,29.061415 L30.7837226,32.2053196 C30.7837226,32.4836599 30.5057061,32.6932536 30.2963563,32.7653537 L30.0870066,32.7653537 C29.7369738,32.6966071 29.3182743,32.6245068 29.1809408,32.6245068 C27.993509,32.2740663 27.296793,31.2260981 27.437476,30.0406365 C27.578159,28.7830747 28.6249078,27.8759534 29.8810064,27.8759534 L30.1590229,27.8759534 L30.3683727,27.8759534 C30.5090557,27.8759534 30.6463892,27.9447002 30.6463892,27.9447002 C30.9244056,27.9447002 31.1337554,28.1542938 31.2057717,28.3638874 C31.2744384,28.4326341 31.2744384,28.573481 31.2744384,28.6422278 L31.1337554,29.061415 Z" id="Shape"/>
        </g>
    </g>
</svg>