<?xml version="1.0" encoding="UTF-8"?>
<svg width="41px" height="12px" viewBox="0 0 41 12" version="1.1" xmlns="http://www.w3.org/2000/svg" xmlns:xlink="http://www.w3.org/1999/xlink">
    <!-- Generator: Sketch 47.1 (45422) - http://www.bohemiancoding.com/sketch -->
    <title>Share Icon</title>
    <desc>Created with Sketch.</desc>
    <defs></defs>
    <g id="Symbols" stroke="none" stroke-width="1" fill="none" fill-rule="evenodd">
        <g id="Trending-Unopened" transform="translate(-586.000000, -319.000000)">
            <g id="Nanotechnology-new" transform="translate(96.000000, 104.000000)">
                <g id="Nanotechnology-Banner" transform="translate(28.000000, 214.000000)">
                    <g id="Icons-in-Header" transform="translate(230.000000, 0.000000)">
                        <g id="Share-Icon" transform="translate(228.000000, 0.000000)">
                            <g id="Group-3" transform="translate(0.000000, -3.000000)">
                                <g id="Group-16">
                                    <text id="Share" font-family="HKGrotesk-Regular, HK Grotesk" font-size="10" font-weight="normal" fill="#303030">
                                        <tspan x="20" y="13">Share</tspan>
                                    </text>
                                    <g id="Icon-/-Share-/-Share-Outlined-Bold" fill-rule="nonzero" fill="#2D2D2D">
                                        <path d="M14.359175,8.88473396 C14.3767618,8.86525747 14.376311,8.8074921 14.3580895,8.78791228 L11.5251668,5.42152963 L11.460365,7.62341865 L10.6888255,7.62341865 C9.03330588,7.62341865 7.727595,8.04641268 6.80339013,8.76485026 C6.09611813,9.31465343 5.62792292,10.4371509 5.62792292,10.4371509 C5.6295197,10.7302996 5.6339285,12.7536812 5.6339285,12.7536812 C6.2756603,11.8203798 6.74548085,11.2971556 7.25560139,10.9190326 C8.11980119,10.2784512 8.72831406,10.1843462 10.6888255,10.1843462 L11.4708839,10.1843462 C11.4708839,10.1843462 11.4879108,11.2552414 11.5016643,12.1202594 C11.5016643,12.1202594 14.359175,8.88473396 14.359175,8.88473396 Z M10.7255015,13.2862683 C10.7255015,13.2862683 10.6888255,10.9795536 10.6888255,10.9795536 C7.91185144,10.9795536 7.57226743,10.9795536 4.83333333,15.5 C4.83333333,15.5 4.83695351,11.1061011 4.83333333,10.4414857 C4.96801796,9.11347221 6.70045748,6.8282112 10.6888255,6.8282112 C10.6888255,6.8282112 10.7553194,4.56916159 10.7553194,4.56916159 C10.7682308,4.13051098 11.0216279,4.03595365 11.3204421,4.35704253 L14.9395656,8.24594876 C15.2387629,8.56744925 15.2428448,9.09216604 14.9487231,9.41789212 L11.2707233,13.4911046 C10.9765835,13.8168506 10.7324796,13.7251537 10.7255015,13.2862683 Z" id="Icon-/-Share"></path>
                                    </g>
                                </g>
                            </g>
                        </g>
                    </g>
                </g>
            </g>
        </g>
    </g>
</svg>
