<?xml version="1.0" encoding="UTF-8"?>
<svg width="26px" height="26px" viewBox="0 0 26 26" version="1.1" xmlns="http://www.w3.org/2000/svg" xmlns:xlink="http://www.w3.org/1999/xlink">
    <!-- Generator: Sketch 50.2 (55047) - http://www.bohemiancoding.com/sketch -->
    <title>Icon / Academia / 55px</title>
    <desc>Created with Sketch.</desc>
    <defs></defs>
    <g id="Work" stroke="none" stroke-width="1" fill="none" fill-rule="evenodd">
        <g id="Public-Profile-_-Paths-SHARE" transform="translate(-196.000000, -718.000000)">
            <g id="window" transform="translate(81.000000, 55.000000)">
                <g id="LEFT_SIDE" transform="translate(36.000000, 110.000000)">
                    <g id="Socials-networks" transform="translate(3.000000, 553.000000)">
                        <g id="academia" transform="translate(76.000000, 0.000000)">
                            <g id="Icon-/-Academia-/-55px">
                                <g>
                                    <rect id="Rectangle-2" fill="#485361" x="0" y="0" width="26" height="26"></rect>
                                    <g id="academia-logo-redesign-2015-A" transform="translate(7.654545, 8.163636)" fill="#FFFFFF" fill-rule="nonzero">
                                        <path d="M2.96600791,10.0047431 L2.96600791,9.47351779 C2.96600791,9.47351779 2.96600791,9.47351779 2.96600791,9.47351779 C2.16916996,9.38498024 1.68221344,9.29644269 2.03636364,8.41106719 C2.08063241,8.32252964 2.30197628,7.74703557 2.61185771,6.95019763 L6.24189723,6.95019763 L6.77312253,8.27826087 C6.86166008,8.49960474 6.90592885,8.67667984 6.90592885,8.80948617 C6.90592885,9.25217391 6.50750988,9.42924901 5.75494071,9.42924901 L5.75494071,9.96047431 L10.4031621,9.96047431 L10.4031621,9.42924901 C10.0047431,9.34071146 9.69486166,9.25217391 9.56205534,8.89802372 L5.97628458,0 L3.40869565,0 L3.8513834,1.10671937 L0.841106719,8.94229249 C0.708300395,9.34071146 0.398418972,9.38498024 0,9.47351779 L0,10.0047431 L2.96600791,10.0047431 Z M4.3826087,2.30197628 L5.84347826,5.97628458 L2.96600791,5.97628458 C3.4972332,4.55968379 4.16126482,2.92173913 4.3826087,2.30197628 Z" id="Shape"></path>
                                    </g>
                                </g>
                            </g>
                        </g>
                    </g>
                </g>
            </g>
        </g>
    </g>
</svg>