<svg xmlns="http://www.w3.org/2000/svg" width="120" height="120" viewBox="0 0 120 120">
  <path fill="#FFFFFF" fill-rule="evenodd" d="M99.7257622,76.602082 C99.685151,76.602082 99.6430895,76.642537 99.5633176,76.642537 C99.0774343,76.7653466 98.671323,77.256585 98.671323,77.7868336 L98.671323,86.5308784 L89.9935929,86.5308784 L89.7905372,86.5308784 C89.1828205,86.6132331 88.6954869,87.2243915 88.736098,87.7979847 C88.8173203,88.4105879 89.3844258,88.9018264 89.9921425,88.8599266 L98.6698726,88.8599266 L98.6698726,97.6039714 C98.6698726,98.2165747 99.2384285,98.7872782 99.8461452,98.7872782 C100.455312,98.7872782 100.981807,98.2151298 100.981807,97.6039714 L100.981807,88.8599266 L109.659537,88.8599266 C110.267253,88.8599266 110.835809,88.3282332 110.835809,87.71563 C110.835809,87.1015819 110.267253,86.5308784 109.659537,86.5308784 L100.981807,86.5308784 L100.981807,77.7868336 C100.981807,77.1337754 100.37409,76.5616271 99.7257622,76.602082 L99.7257622,76.602082 Z M99.8461452,72.7198533 C108.078603,72.7198533 114.730127,79.4209239 114.730127,87.71563 C114.730127,96.0088912 108.078603,102.709962 99.8461452,102.709962 C91.6151376,102.709962 84.9636133,96.0088912 84.9636133,87.71563 C84.9636133,79.4209239 91.6151376,72.7198533 99.8461452,72.7198533 L99.8461452,72.7198533 Z M48.0219813,47.7562701 L75.0283884,70.9643982 C75.4330494,71.332827 76.0828276,71.332827 76.488939,70.9643982 L90.8029149,58.7484533 L103.251679,69.4126625 L103.251679,70.7606787 C102.156629,70.5569592 101.022418,70.3936947 99.8446948,70.3936947 C90.3561924,70.3936947 82.6516792,78.1567073 82.6516792,87.7170748 C82.6516792,88.9018264 82.8141238,90.0446782 83.0171795,91.14852 L24.4617194,91.14852 C19.9205238,91.14852 16.271323,87.4714556 16.271323,82.8957137 L16.271323,70.0657207 L48.0219813,47.7562701 Z M75.9218334,39.1769348 C79.0430895,39.1769348 81.5580793,41.7097025 81.5580793,44.8565184 C81.5580793,48.0033342 79.0445399,50.536102 75.9218334,50.536102 C72.7991269,50.536102 70.2841372,48.0033342 70.2841372,44.8565184 C70.2841372,41.7097025 72.7976765,39.1769348 75.9218334,39.1769348 L75.9218334,39.1769348 Z M75.9218334,36.8464417 C71.541632,36.8464417 68.0142646,40.4425962 68.0142646,44.8550735 C68.0142646,49.2689957 71.5430824,52.8232505 75.9218334,52.8232505 C80.2599732,52.8232505 83.8294022,49.2689957 83.8294022,44.8550735 C83.8294022,40.444041 80.2599732,36.8464417 75.9218334,36.8464417 L75.9218334,36.8464417 Z M24.4617194,29.2885933 L95.0221221,29.2885933 C99.6039287,29.2885933 103.25313,32.9266476 103.25313,37.5023895 L103.25313,66.3467566 L91.5339154,56.3356055 C91.1292544,56.0090764 90.438865,56.0090764 90.034204,56.3760605 L75.7593889,68.5934502 L48.7921425,45.4691216 C48.5484757,45.2639573 48.2656481,45.1411477 47.940759,45.1830475 C47.7377033,45.2235024 47.5767091,45.2654021 47.4142646,45.3882118 L16.2698726,67.2873338 L16.2698726,37.5009447 C16.2698726,32.9252028 19.9190734,29.2885933 24.4617194,29.2885933 L24.4617194,29.2885933 Z M24.4617194,27.0014448 C18.7036401,27.0014448 14,31.6999963 14,37.5023895 L14,82.8957137 C14,88.7385618 18.7036401,93.4775683 24.4617194,93.4775683 L83.6669577,93.4775683 C86.0195029,100.178639 92.3867493,105 99.8461452,105 C109.295487,105 117,97.2369874 117,87.7170748 C117,80.1996814 112.215138,73.7832401 105.563613,71.4151817 L105.563613,37.5009447 C105.563613,31.6985515 100.819362,27 95.0206717,27 L24.4617194,27 L24.4617194,27.0014448 Z"/>
</svg>
