<?xml version="1.0" encoding="UTF-8"?>
<svg width="26px" height="26px" viewBox="0 0 26 26" version="1.1" xmlns="http://www.w3.org/2000/svg" xmlns:xlink="http://www.w3.org/1999/xlink">
    <!-- Generator: Sketch 50.2 (55047) - http://www.bohemiancoding.com/sketch -->
    <title>Icon / Linkedin / 55px</title>
    <desc>Created with Sketch.</desc>
    <defs></defs>
    <g id="Work" stroke="none" stroke-width="1" fill="none" fill-rule="evenodd">
        <g id="Public-Profile-_-Paths-SHARE" transform="translate(-120.000000, -718.000000)">
            <g id="window" transform="translate(81.000000, 55.000000)">
                <g id="LEFT_SIDE" transform="translate(36.000000, 110.000000)">
                    <g id="Socials-networks" transform="translate(3.000000, 553.000000)">
                        <g id="linkedin">
                            <g id="Icon-/-Linkedin-/-55px">
                                <g>
                                    <rect id="Rectangle-2" fill="#485361" x="0" y="0" width="26" height="26"></rect>
                                    <g id="In-Black-0p25in-TM" transform="translate(8.672727, 8.672727)" fill="#FFFFFF">
                                        <g id="Group-3">
                                            <path d="M8.55796667,8.45082424 L6.80421212,8.45082424 L6.80421212,5.73366465 C6.80421212,5.08511111 6.79106061,4.25181414 5.89149697,4.25181414 C4.97812424,4.25181414 4.83871818,4.95761212 4.83871818,5.68617778 L4.83871818,8.45082424 L3.08496364,8.45082424 L3.08496364,2.86298586 L4.7677,2.86298586 L4.7677,3.62602828 L4.79137273,3.62602828 C5.02612727,3.18693737 5.59887576,2.72377778 6.45306667,2.72377778 C8.22983636,2.72377778 8.55796667,3.88102626 8.55796667,5.38629495 L8.55796667,8.45082424 Z M1.10566061,2.09864242 C0.541460606,2.09864242 0.0870757576,1.64784242 0.0870757576,1.09166061 C0.0870757576,0.536129293 0.541460606,0.0853292929 1.10566061,0.0853292929 C1.66657273,0.0853292929 2.12358788,0.536129293 2.12358788,1.09166061 C2.12358788,1.64784242 1.66657273,2.09864242 1.10566061,2.09864242 Z M0.226481818,8.45082424 L1.98418182,8.45082424 L1.98418182,2.86298586 L0.226481818,2.86298586 L0.226481818,8.45082424 Z" id="Fill-1"></path>
                                        </g>
                                    </g>
                                </g>
                            </g>
                        </g>
                    </g>
                </g>
            </g>
        </g>
    </g>
</svg>