<?xml version="1.0" encoding="UTF-8"?>
<svg width="9px" height="14px" viewBox="0 0 9 14" version="1.1" xmlns="http://www.w3.org/2000/svg" xmlns:xlink="http://www.w3.org/1999/xlink">
    <!-- Generator: Sketch 50.2 (55047) - http://www.bohemiancoding.com/sketch -->
    <title>Icon / Location_profile</title>
    <desc>Created with Sketch.</desc>
    <defs></defs>
    <g id="Work" stroke="none" stroke-width="1" fill="none" fill-rule="evenodd">
        <g id="Public-Profile-_-Paths-SHARE" transform="translate(-121.000000, -686.000000)" fill="#000000">
            <g id="window" transform="translate(81.000000, 55.000000)">
                <g id="LEFT_SIDE" transform="translate(36.000000, 110.000000)">
                    <g id="location" transform="translate(4.000000, 521.000000)">
                        <g id="Icon-/-Location_profile">
                            <g id="Shape">
                                <path d="M4.5,0.564516129 C6.67125,0.564516129 8.4375,2.2433871 8.4375,4.30725806 C8.4375,5.92403226 5.923125,10.5 4.5,12.9093548 C3.076875,10.5056452 0.5625,5.92403226 0.5625,4.30725806 C0.5625,2.2433871 2.32875,0.564516129 4.5,0.564516129 Z M4.5,0 C2.014875,0 0,1.9283871 0,4.30725806 C0,6.68612903 4.5,14 4.5,14 C4.5,14 9,6.68725806 9,4.30725806 C9,1.92725806 6.985125,0 4.5,0 Z" fill-rule="nonzero"></path>
                                <path d="M4.5,2.98741935 C5.12753355,2.98741935 5.63625,3.49795916 5.63625,4.12774194 C5.63625,4.75752471 5.12753355,5.26806452 4.5,5.26806452 C3.87246645,5.26806452 3.36375,4.75752471 3.36375,4.12774194 C3.36437015,3.49821714 3.87272351,2.98804172 4.5,2.98741935 Z M4.5,2.42290323 C3.56180628,2.42290323 2.80125,3.18618552 2.80125,4.12774194 C2.80125,5.06929836 3.56180628,5.83258065 4.5,5.83258065 C5.43819372,5.83258065 6.19875,5.06929836 6.19875,4.12774194 C6.19875,3.6755906 6.01977507,3.2419582 5.70119764,2.92223892 C5.38262022,2.60251965 4.95053651,2.42290323 4.5,2.42290323 Z" fill-rule="nonzero"></path>
                            </g>
                        </g>
                    </g>
                </g>
            </g>
        </g>
    </g>
</svg>