<?xml version="1.0" encoding="UTF-8"?>
<svg width="26px" height="26px" viewBox="0 0 26 26" version="1.1" xmlns="http://www.w3.org/2000/svg" xmlns:xlink="http://www.w3.org/1999/xlink">
    <!-- Generator: Sketch 50.2 (55047) - http://www.bohemiancoding.com/sketch -->
    <title>Icon / Research Gate / 55px</title>
    <desc>Created with Sketch.</desc>
    <defs></defs>
    <g id="Work" stroke="none" stroke-width="1" fill="none" fill-rule="evenodd">
        <g id="Public-Profile-_-Paths-SHARE" transform="translate(-234.000000, -718.000000)">
            <g id="window" transform="translate(81.000000, 55.000000)">
                <g id="LEFT_SIDE" transform="translate(36.000000, 110.000000)">
                    <g id="Socials-networks" transform="translate(3.000000, 553.000000)">
                        <g id="researchgate" transform="translate(114.000000, 0.000000)">
                            <g id="Icon-/-Research-Gate-/-55px">
                                <g>
                                    <rect id="Rectangle-2" fill="#485361" x="0" y="0" width="26" height="26"></rect>
                                    <g id="svg_1" transform="translate(8.163636, 8.163636)" fill="#FFFFFF" fill-rule="nonzero">
                                        <path d="M3.84117814,6.53412631 C3.89827244,6.65148683 3.93950722,6.77201926 4.00928915,6.87034834 C4.51679411,7.590371 5.01795525,8.31673747 5.55400736,9.01455678 C5.84265081,9.39201359 6.21376381,9.69651657 6.70540923,9.79801756 C6.75933163,9.81070518 6.83228547,9.90269046 6.83545738,9.95978476 C6.84180119,10.0676296 6.75933163,10.121552 6.64831492,10.1342396 C5.76969697,10.2325687 5.06236194,9.97247239 4.53899745,9.22390258 C3.98708581,8.43092608 3.41931464,7.64746531 2.95304446,6.80056641 C2.93084112,6.75615973 2.87057491,6.70858114 2.82616822,6.70540923 C2.57241575,6.68320589 2.32183517,6.67051827 2.0680827,6.65783064 C1.92534693,6.64831492 1.87142453,6.71175304 1.87459643,6.85766072 C1.88094024,7.34930615 1.87142453,7.84095157 1.88094024,8.332597 C1.88728406,8.64344378 1.91583121,8.95429057 1.94437836,9.26513735 C1.9665817,9.50620221 2.17909941,9.68700085 2.46139904,9.71871991 C2.57241575,9.73140753 2.68343246,9.73140753 2.79127726,9.75043897 C2.85788728,9.76312659 2.92449731,9.79167375 2.97841971,9.82973662 C3.0767488,9.90586236 3.04820164,10.0232229 2.93084112,10.0581138 C2.88960634,10.0708015 2.84837157,10.0708015 2.80396488,10.0708015 C1.95389408,10.0708015 1.10065137,10.0708015 0.250580572,10.0708015 C0.155423393,10.0708015 0.0412347777,10.0739734 0.0317190598,9.94709714 C0.0222033418,9.8202209 0.126876239,9.7694704 0.231549136,9.74092325 C0.29181535,9.72506372 0.358425375,9.72506372 0.418691589,9.71871991 C0.659756443,9.69334466 0.903993203,9.47131124 0.938884169,9.2334183 C0.970603229,9.00504106 0.999150382,8.77349193 1.00232229,8.54194279 C1.0086661,7.01308411 1.00549419,5.48739734 1.00549419,3.95853866 C1.00549419,3.67306712 0.980118946,3.39393939 0.840555084,3.1338431 C0.76442934,2.99110734 0.637553101,2.94352875 0.50433305,2.89912206 C0.399660153,2.8642311 0.29181535,2.84519966 0.183970547,2.82299632 C0.0539224016,2.79762107 0.0190314359,2.71197961 0.0222033418,2.59144718 C0.0253752478,2.50897763 0.0602662135,2.48043047 0.139563863,2.48360238 C0.298159162,2.48677428 0.45675446,2.48360238 0.615349759,2.48360238 C1.25924667,2.48360238 1.90631549,2.48043047 2.5502124,2.48994619 C2.98159162,2.49629 3.42248655,2.48994619 3.84752195,2.55655622 C4.40260549,2.64536958 4.91645426,2.88326253 5.22412914,3.37807986 C5.47788162,3.78725573 5.56986689,4.2471821 5.48739734,4.74199943 C5.35417729,5.54766355 4.87521948,6.06468423 4.17740017,6.41993769 C4.0854149,6.46434438 3.980742,6.48654772 3.84117814,6.53412631 Z M1.93486265,4.55168508 C1.93486265,5.01795525 1.93803455,5.48105353 1.93486265,5.9473237 C1.93486265,6.06468423 1.96975361,6.11860663 2.09980176,6.11543472 C2.43285188,6.105919 2.76590201,6.12495044 3.09895214,6.10909091 C3.51447182,6.08688757 3.88241291,5.93146417 4.15519683,5.61110167 C4.57071651,5.12262815 4.63098272,4.55168508 4.4596998,3.95536675 C4.37088643,3.65086378 4.19643161,3.37490796 3.89827244,3.24168791 C3.64769187,3.1306712 3.37490796,3.05454545 3.10212404,3.0259983 C2.78493345,2.98793543 2.45822713,3.02282639 2.13469272,3.01331068 C1.98244123,3.00696686 1.93169074,3.05454545 1.93486265,3.20679694 C1.94120646,3.65403568 1.93486265,4.10127443 1.93486265,4.55168508 Z" id="svg_2"></path>
                                        <path d="M6.51192297,2.10614557 C6.51192297,1.86190881 6.50240725,1.62084395 6.51509487,1.37660719 C6.5277825,1.12285472 6.56901728,0.875446049 6.69589351,0.650240725 C6.88303597,0.320362504 7.19705466,0.164939111 7.54279241,0.0602662135 C8.10104786,-0.107844803 8.79886718,0.114188615 9.14143302,0.558255452 C9.20804305,0.647068819 9.29685641,0.729538374 9.20487114,0.850070801 C9.14143302,0.929368451 8.89402436,0.970603229 8.80521099,0.916680827 C8.7576324,0.888133673 8.71639762,0.84372699 8.67833475,0.802492212 C8.49753611,0.593146417 8.26915888,0.45675446 7.99320306,0.45675446 C7.5396205,0.459926366 7.15581988,0.723194562 7.1145851,1.21483999 C7.07335033,1.70331351 7.05114698,2.19495894 7.0606627,2.68343246 C7.07017842,3.04185783 7.18119513,3.38125177 7.55230813,3.5557066 C7.84095157,3.68892665 8.41506655,3.61280091 8.60220901,3.38759558 C8.70053809,3.26706315 8.7576324,3.10529595 8.80838289,2.95621637 C8.84644577,2.84519966 8.84644577,2.71832342 8.85913339,2.59779099 C8.87182101,2.48677428 8.82107052,2.42650807 8.71005381,2.42333617 C8.52925517,2.42016426 8.35162843,2.41699235 8.17082979,2.42016426 C8.05664118,2.42333617 8.0154064,2.37258567 8.03443784,2.26474087 C8.04712546,2.18544322 8.05346927,2.10297366 8.08518833,2.03319173 C8.10421977,1.99195695 8.16765789,1.95072218 8.21206457,1.94755027 C8.56097423,1.92534693 8.90988389,1.9126593 9.25562164,1.89679977 C9.35077882,1.89362787 9.41738884,1.9094874 9.41738884,2.03001982 C9.42373265,2.44553951 9.41421694,2.86105919 9.2905126,3.26389125 C9.15094874,3.72698952 8.72274143,4.10761824 8.19937695,4.11713396 C7.92659303,4.12347777 7.65063721,4.09493061 7.3778533,4.06003965 C7.28269612,4.04735202 7.18119513,3.98391391 7.10506939,3.91730388 C6.73395639,3.58742566 6.46751628,3.20679694 6.49923534,2.67708864 C6.51826678,2.48677428 6.50875106,2.29645993 6.51192297,2.10614557 C6.50875106,2.10614557 6.50875106,2.10614557 6.51192297,2.10614557 Z" id="svg_3"></path>
                                    </g>
                                </g>
                            </g>
                        </g>
                    </g>
                </g>
            </g>
        </g>
    </g>
</svg>