<?xml version="1.0" encoding="UTF-8"?>
<svg width="17px" height="23px" viewBox="0 0 17 23" version="1.1" xmlns="http://www.w3.org/2000/svg" xmlns:xlink="http://www.w3.org/1999/xlink">
    <!-- Generator: Sketch 45.1 (43504) - http://www.bohemiancoding.com/sketch -->
    <title>Icon / Share / Share Thin@1x</title>
    <desc>Created with Sketch.</desc>
    <defs></defs>
    <g id="--Design-" stroke="none" stroke-width="1" fill="none" fill-rule="evenodd">
        <g id="Design-/-Node-Window-/-Expertise-Public-view" transform="translate(-736.000000, -285.000000)" fill="#2D2D2D">
            <g id="Group-6" transform="translate(178.000000, 97.000000)">
                <g id="UI-/-Component-/-Profile-/-Header-Copy" transform="translate(250.000000, 0.000000)">
                    <g id="Group-3" transform="translate(0.000000, 182.000000)">
                        <g id="Icon-/-Share-/-Share-Thin" transform="translate(299.000000, 0.000000)">
                            <path d="M19.8666667,12.7857863 L25.6666667,12.7857863 L25.6666667,28.5833333 L9.91666667,28.5833333 L9.91666667,12.7857863 L15.7166667,12.7857863 L15.7166667,13.6132768 L10.7416667,13.6132768 L10.7416667,27.7558428 L24.8416667,27.7558428 L24.8416667,13.6132768 L19.8666667,13.6132768 L19.8666667,12.7857863 Z M17.7667417,6.41666667 L21.5167417,10.1777366 L20.9417417,10.7547232 L18.1917417,7.99642137 L18.1917417,11.6574402 L18.1917417,14.8919253 L18.1917417,20.68461 L17.3667417,20.68461 L17.3667417,14.8919253 L17.3417417,14.8919253 L17.3417417,11.6574402 L17.3417417,7.99642137 L14.5917417,10.7547232 L14.0167417,10.1777366 L17.7667417,6.41666667 Z" id="Combined-Shape"></path>
                        </g>
                    </g>
                </g>
            </g>
        </g>
    </g>
</svg>