<?xml version="1.0" encoding="UTF-8"?>
<svg width="26px" height="26px" viewBox="0 0 26 26" version="1.1" xmlns="http://www.w3.org/2000/svg" xmlns:xlink="http://www.w3.org/1999/xlink">
    <!-- Generator: Sketch 50.2 (55047) - http://www.bohemiancoding.com/sketch -->
    <title>Icon / Twitter / 55px</title>
    <desc>Created with Sketch.</desc>
    <defs></defs>
    <g id="Work" stroke="none" stroke-width="1" fill="none" fill-rule="evenodd">
        <g id="Public-Profile-_-Paths-SHARE" transform="translate(-158.000000, -718.000000)">
            <g id="window" transform="translate(81.000000, 55.000000)">
                <g id="LEFT_SIDE" transform="translate(36.000000, 110.000000)">
                    <g id="Socials-networks" transform="translate(3.000000, 553.000000)">
                        <g id="twitter" transform="translate(38.000000, 0.000000)">
                            <g id="Icon-/-Twitter-/-55px">
                                <g>
                                    <rect id="Rectangle-2" fill="#485361" x="0" y="0" width="26" height="26"></rect>
                                    <g id="twitter-logo-silhouette" transform="translate(7.654545, 8.672727)" fill="#FFFFFF" fill-rule="nonzero">
                                        <path d="M10.5777778,1.02396891 C10.1884562,1.19773217 9.77071967,1.31557642 9.33181031,1.36818764 C9.7799666,1.09787183 10.123019,0.669113029 10.2856094,0.159783509 C9.86522847,0.410113328 9.40120548,0.591884914 8.90677999,0.69042214 C8.51085588,0.264988537 7.947692,0 7.323049,0 C6.12468161,0 5.15302817,0.978704459 5.15302817,2.18510651 C5.15302817,2.35620613 5.17219611,2.523319 5.20921839,2.68311992 C3.40605001,2.59189464 1.80712641,1.72172041 0.736988859,0.399458772 C0.549924355,0.721706838 0.443506898,1.09719286 0.443506898,1.49800957 C0.443506898,2.25634579 0.826882833,2.92545882 1.40855786,3.31692668 C1.05293999,3.30494901 0.718477717,3.20641178 0.425669831,3.04262411 L0.425669831,3.06992205 C0.425669831,4.12851827 1.17391056,5.0120107 2.16604551,5.21308931 C1.98426991,5.26235792 1.79259058,5.28965587 1.59429149,5.28965587 C1.45417028,5.28965587 1.31866388,5.27567612 1.18580194,5.24903973 C1.46208634,6.11789085 2.26321604,6.74971294 3.21240031,6.76703529 C2.47010527,7.35293137 1.53414325,7.70113686 0.517551463,7.70113686 C0.342395621,7.70113686 0.169866944,7.6904823 0,7.67117528 C0.960418853,8.29236022 2.10062565,8.65454545 3.32609432,8.65454545 C7.31779467,8.65454545 9.49972416,5.32428317 9.49972416,2.4361153 L9.49244761,2.15316025 C9.91877423,1.84687661 10.2875971,1.46205915 10.5777778,1.02396891 Z" id="Shape"></path>
                                    </g>
                                </g>
                            </g>
                        </g>
                    </g>
                </g>
            </g>
        </g>
    </g>
</svg>