<?xml version="1.0" encoding="UTF-8"?>
<svg width="19px" height="12px" viewBox="0 0 19 12" version="1.1" xmlns="http://www.w3.org/2000/svg" xmlns:xlink="http://www.w3.org/1999/xlink">
    <!-- Generator: Sketch 51.2 (57519) - http://www.bohemiancoding.com/sketch -->
    <title>Shape</title>
    <desc>Created with Sketch.</desc>
    <defs></defs>
    <g id="Clean" stroke="none" stroke-width="1" fill="none" fill-rule="evenodd">
        <g id="Public-Profile-_-Activity" transform="translate(-117.000000, -623.000000)" fill="#000000" fill-rule="nonzero">
            <g id="window" transform="translate(81.000000, 55.000000)">
                <g id="LEFT_SIDE" transform="translate(36.000000, 110.000000)">
                    <g id="study" transform="translate(0.000000, 455.000000)">
                        <path d="M18.7573981,6.62717603 L9.64656557,3.02682172 C9.55479366,2.99105943 9.45312881,2.99105943 9.3613569,3.02682172 L0.250524319,6.62717603 C0.0993320272,6.68752181 1.992776e-17,6.83503304 0,6.99921264 C-1.992776e-17,7.16339225 0.0993320272,7.31090348 0.250524319,7.37124925 L3.16599074,8.52336263 L3.16599074,12.1677213 C3.16599074,13.1278158 6.58849481,15 9.50396123,15 C12.4194277,15 15.8419317,13.1278158 15.8419317,12.1677213 L15.8419317,8.52336263 L17.0303012,8.05131618 L17.0303012,11.8916941 C16.5005441,12.1982685 16.192347,12.7849635 16.2380549,13.3998425 C16.2380549,14.2959307 16.7609374,15 17.4264243,15 C18.0919112,15 18.6147938,14.2959307 18.6147938,13.3998425 C18.653196,12.7875949 18.3467274,12.2057379 17.8225475,11.8956945 L17.8225475,7.73928547 L18.7494757,7.37124925 C18.900668,7.31090348 19,7.16339225 19,6.99921264 C19,6.83503304 18.900668,6.68752181 18.7494757,6.62717603 L18.7573981,6.62717603 Z M15.0496854,12.1237169 C14.7961666,12.5637602 12.2332498,14.1999213 9.50396123,14.1999213 C6.77467269,14.1999213 4.21175587,12.5637602 3.95823705,12.1237169 L3.95823705,8.83939373 L9.3613569,10.9716036 C9.45312881,11.0073659 9.55479366,11.0073659 9.64656557,10.9716036 L15.0496854,8.83939373 L15.0496854,12.1237169 Z M9.46434892,6.99921264 L15.8934277,7.64727642 L9.50396123,10.1715248 L1.4785061,6.99921264 L9.50396123,3.82690045 L17.5294164,6.99921264 L17.5016877,6.99921264 L17.4739591,6.99921264 L9.55149601,6.19913391 C9.33272323,6.17704034 9.13763782,6.33823369 9.11576054,6.55916934 C9.09388326,6.78010498 9.2534986,6.97711908 9.47227138,6.99921264 L9.46434892,6.99921264 Z M17.4264243,14.1999213 C17.2640138,14.1999213 17.0303012,13.8878906 17.0303012,13.3998425 C17.0303012,12.9117945 17.2640138,12.5997638 17.4264243,12.5997638 C17.5888348,12.5997638 17.8225475,12.9117945 17.8225475,13.3998425 C17.8225475,13.8878906 17.5888348,14.1999213 17.4264243,14.1999213 Z" id="Shape"></path>
                    </g>
                </g>
            </g>
        </g>
    </g>
</svg>